<?xml version="1.0" encoding="utf-8"?>
<!-- Generator: Adobe Illustrator 27.5.0, SVG Export Plug-In . SVG Version: 6.00 Build 0)  -->
<svg version="1.1" id="Capa_1" xmlns="http://www.w3.org/2000/svg" xmlns:xlink="http://www.w3.org/1999/xlink" x="0px" y="0px"
	 viewBox="0 0 160 40.6" style="enable-background:new 0 0 160 40.6;" xml:space="preserve">
<style type="text/css">
	.st0{fill:#53BE7E;}
	.st1{fill:#333333;}
</style>
<g id="Layer_1">
	<g id="g3514">
		<path id="path3516" class="st0" d="M52.3,9.2c-4.8-1.9-10.1-0.7-13.8,2.5c-0.8-3.5-3.3-6.6-7-8C25.7,1.5,19.2,4.4,17,10.2
			l-1.1,2.9l3.4,1.2l1.1-2.9c1.5-4,6-6,10-4.5s6,6,4.5,10l-1.1,2.9l3.3,1.3l1.1-2.9l0,0c2-5.2,7.8-7.7,13-5.8c5.2,2,7.7,7.8,5.8,13
			l0,0l-2.1,5.3h3.8l1.6-4l0,0C62.9,19.5,59.2,11.8,52.3,9.2z"/>
	</g>
	<g id="g3518">
		<path id="path3520" class="st1" d="M9.2,32.8c-1,0-2.1-0.4-2.9-1c-2.5-2.1-3.5-5.6-2.2-8.8c1.6-4,6.1-6,10-4.4l2.9,1.2l1.3-3.3
			l-2.9-1.2l0,0C9.6,13,3.1,15.9,0.8,21.7C-1,26.3,0.2,32.2,5.3,35.3c1,0.6,2.2,1,3.5,1h47.6l1.5-3.5L9.2,32.8L9.2,32.8L9.2,32.8z"
			/>
	</g>
	<path class="st1" d="M73.5,30.2c1.6,0,2.3,1.2,2.3,2.8c0,2-1,2.8-2.3,2.8c-0.7,0-1.3-0.2-1.7-0.8h-0.1l-0.2,0.7h-0.6V28h0.8
		c0,2,0,2.4,0,3h0C72.2,30.3,72.7,30.2,73.5,30.2z M73.3,30.9c-0.6,0-1,0.2-1.2,0.5c-0.2,0.3-0.4,0.9-0.4,1.6c0,1.3,0.3,2.1,1.6,2.1
		c1.2,0,1.5-1,1.5-2.2C74.9,31.8,74.5,30.9,73.3,30.9L73.3,30.9z"/>
	<path class="st1" d="M76.3,30.3h0.9c0.8,2,1.5,3.8,1.7,4.7h0c0.2-0.7,1-2.8,1.6-4.7h0.9l-2.3,6.2c-0.2,0.6-0.5,1.1-0.8,1.3
		c-0.5,0.4-1.2,0.5-1.9,0.3v-0.7c1.5,0.3,1.7-0.5,2.1-1.7L76.3,30.3L76.3,30.3z"/>
	<path class="st1" d="M88.3,35.7l-0.2-0.8h0c-0.5,0.6-0.9,0.9-1.8,0.9c-0.5,0-1-0.1-1.3-0.4c-0.3-0.3-0.5-0.7-0.5-1.2
		c0-1.1,0.9-1.7,2.6-1.7l0.9,0c0-1-0.1-1.6-1.2-1.6c-0.5,0-1,0.1-1.5,0.4l-0.3-0.6c0.5-0.3,1.2-0.5,1.8-0.5c1.4,0,1.9,0.6,1.9,1.8
		v3.7H88.3L88.3,35.7z M87.6,34.7c0.5-0.5,0.4-1.1,0.4-1.7l-0.8,0c-0.9,0-1.9,0.2-1.9,1.2C85.4,35.4,87,35.3,87.6,34.7z"/>
	<path class="st1" d="M90.6,28.8c0-0.4,0.2-0.5,0.5-0.5c0.3,0,0.5,0.2,0.5,0.5c0,0.4-0.2,0.6-0.5,0.6C90.8,29.3,90.6,29.2,90.6,28.8
		z M91.5,35.7h-0.8v-5.5h0.8V35.7z"/>
	<path class="st1" d="M95.7,30.9h-1.4v4.8h-0.8v-4.8h-1v-0.4l1-0.3c0-2,0.9-2.7,2.8-2.1L96,28.8c-0.5-0.2-1.2-0.3-1.5,0.2
		c-0.1,0.2-0.2,0.5-0.2,1v0.4h1.4V30.9z M96.6,28.8c0-0.4,0.2-0.5,0.5-0.5c0.3,0,0.5,0.2,0.5,0.5c0,0.4-0.2,0.6-0.5,0.6
		C96.8,29.3,96.6,29.2,96.6,28.8z M97.5,35.7h-0.8v-5.5h0.8V35.7z"/>
	<path class="st1" d="M103,35.7v-3.5c0-0.9-0.4-1.3-1.3-1.3c-1.3,0-1.7,0.7-1.7,2v2.9h-0.8v-5.5h0.7l0.1,0.7h0
		c0.4-0.6,1.1-0.8,1.7-0.8c1.4,0,2,0.7,2,2v3.6H103L103,35.7z"/>
	<path class="st1" d="M104.7,30.3h0.9c0.8,2,1.5,3.8,1.7,4.7h0c0.2-0.7,1-2.8,1.6-4.7h0.9c-2.5,6.7-2.5,7-3.2,7.5
		c-0.5,0.4-1.2,0.5-1.9,0.3v-0.7c1.5,0.3,1.7-0.6,2.1-1.7L104.7,30.3L104.7,30.3z"/>
	<path class="st1" d="M115.4,33c0,1.7-0.9,2.8-2.5,2.8c-1.4,0-2.5-1-2.5-2.8c0-1.7,0.9-2.8,2.5-2.8C114.5,30.2,115.4,31.3,115.4,33
		L115.4,33z M111.2,33c0,1.2,0.4,2.1,1.6,2.1c1.2,0,1.7-0.9,1.7-2.1c0-1.2-0.4-2.1-1.7-2.1C111.6,30.9,111.2,31.8,111.2,33L111.2,33
		z"/>
	<path class="st1" d="M79.1,15.3c1.5-0.8,2.3-2.3,2.3-3.9c0-1.5-0.5-2.7-1.5-3.5c-1.1-1-2.6-1.4-4.9-1.4c-1.5,0-2.9,0.1-4.4,0.4
		v18.3c1.1,0.2,2.1,0.3,3.8,0.3c4.2,0,7.7-1.4,7.7-5.6C82,17.5,80.6,16,79.1,15.3z M73.5,22.9v-6.1H75c1.2,0,4,0.3,4,3.1
		S76.5,23,75,23C74.9,23,74,23,73.5,22.9z M73.5,14.3V9.2c0.4-0.1,0.9-0.1,1.6-0.1c2.3,0,3.4,0.8,3.4,2.6c0,1.6-1.3,2.6-3.3,2.6
		L73.5,14.3L73.5,14.3z"/>
	<polygon class="st1" points="84.8,11.7 84.8,25.4 87.8,25.4 87.8,11.7 	"/>
	<path class="st1" d="M86.3,6.6c-1,0-1.8,0.8-1.8,1.8s0.7,1.8,1.7,1.8c1.1,0,1.8-0.8,1.8-1.8C88,7.4,87.3,6.6,86.3,6.6z"/>
	<polygon class="st1" points="91.4,5.7 91.4,25.4 94.3,25.4 94.3,5.7 	"/>
	<polygon class="st1" points="98,5.7 98,25.4 100.9,25.4 100.9,5.7 	"/>
	<path class="st1" d="M110.1,11.4c-3.6,0-6.4,2.7-6.4,7.2c0,4.1,2.6,7,6.2,7c3.5,0,6.4-2.6,6.4-7.2C116.3,14.5,114,11.4,110.1,11.4
		L110.1,11.4z M110,23.2c-1.9,0-3.3-1.9-3.3-4.6c0-2.3,1-4.6,3.4-4.6c2.2,0,3.3,2.4,3.3,4.6C113.3,21.2,111.9,23.2,110,23.2
		L110,23.2z"/>
	<path class="st1" d="M132.8,11.4c-1.8,0-3.1,0.8-4,2.2c-0.7-1.4-2-2.2-3.5-2.2c-1.5,0-2.7,0.6-3.6,1.7l-0.1-1.4h-2.7
		c0.2,2.3,0.1,2.1,0.1,13.6h2.9v-8.2c0-1.5,1.1-3.1,2.5-3.1c2,0,2.2,2.4,2.2,3.2v8.1h2.9V17c0-1.8,1.2-2.9,2.4-2.9
		c1.9,0,2.3,2,2.3,3.6v7.7h2.9v-8C137.2,11.7,133.5,11.4,132.8,11.4L132.8,11.4z"/>
	<path class="st1" d="M150,21.9v-4.8c0-3.4-1.6-5.6-5-5.6c-1.6,0-3.1,0.4-4.4,1.4l0.7,2.3c1-0.7,2-1.2,3.4-1.2
		c1.6,0,2.4,0.8,2.4,2.5c-2.3,0-4,0.5-5.3,1.3c-1.3,0.9-2,2.2-2,3.9c0,2.2,1.5,4.1,4.1,4.1c1.4,0,2.6-0.5,3.5-1.4l0.1,1.1h2.8
		C150.1,24.5,150,23.8,150,21.9L150,21.9z M144.4,23.2c-1.1,0-1.7-0.7-1.7-1.9c0-0.9,0.4-1.6,1.3-2c0.7-0.3,1.8-0.5,3.1-0.5v1.9
		C147.1,21.7,146.1,23.2,144.4,23.2L144.4,23.2z"/>
	<path class="st1" d="M156.8,11.7V7.9l-2.9,0.8v3H152v2.5h1.9v6.7c0,1.7,0.3,2.9,0.9,3.6c1.1,1.4,3.4,1.4,5,0.7l-0.1-2.5
		c-0.6,0.2-0.9,0.3-1.6,0.3c-0.7,0-1.3-0.3-1.3-2.1v-6.6h3.2v-2.5H156.8z"/>
</g>
</svg>
