<?xml version="1.0" encoding="UTF-8" standalone="no"?><!DOCTYPE svg PUBLIC "-//W3C//DTD SVG 1.1//EN" "http://www.w3.org/Graphics/SVG/1.1/DTD/svg11.dtd"><svg width="100%" height="100%" viewBox="0 0 938 313" version="1.1" xmlns="http://www.w3.org/2000/svg" xmlns:xlink="http://www.w3.org/1999/xlink" xml:space="preserve" xmlns:serif="http://www.serif.com/" style="fill-rule:evenodd;clip-rule:evenodd;stroke-linejoin:round;stroke-miterlimit:2;"><rect id="ArtBoard1" x="0" y="0" width="937.5" height="312.5" style="fill:none;"/><g><g><rect x="273.157" y="45.253" width="27.36" height="221.471" style="fill:#0066a5;fill-rule:nonzero;"/><path d="M283.317,136.096l-6,4.35l2.294,-7.064l-6.005,-4.36l7.421,-0l2.29,-7.05l2.299,7.05l7.421,-0l-6.005,4.36l2.305,7.079l-6.02,-4.365Z" style="fill:#fdb912;fill-rule:nonzero;"/><path d="M290.308,161.547l-6.005,4.375l2.3,-7.08l-6.006,-4.345l7.431,0l2.29,-7.054l2.285,7.054l7.43,0l-6.014,4.341l2.304,7.084l-6.015,-4.375Z" style="fill:#fdb912;fill-rule:nonzero;"/><path d="M283.317,187.794l-6,4.335l2.289,-7.045l-6,-4.36l7.416,0l2.295,-7.074l2.294,7.074l7.426,0l-6.005,4.36l2.295,7.06l-6.01,-4.35Z" style="fill:#fdb912;fill-rule:nonzero;"/><path d="M235.066,107.604l-5.995,-4.365l7.416,0l2.294,-7.055l2.29,7.055l7.421,0l-6,4.365l2.299,7.064l-6.01,-4.369l-6.01,4.374l2.295,-7.069Z" style="fill:#fdb912;fill-rule:nonzero;"/><path d="M263.261,116.636l-6,4.36l2.299,-7.055l-6.005,-4.355l7.416,-0l2.29,-7.065l2.299,7.065l7.421,-0l-6.005,4.36l2.29,7.055l-6.005,-4.365Z" style="fill:#fdb912;fill-rule:nonzero;"/><path d="M263.271,206.283l-6.006,4.355l2.295,-7.06l-6.005,-4.36l7.421,0l2.295,-7.055l2.304,7.055l7.416,0l-6.01,4.36l2.3,7.069l-6.01,-4.364Z" style="fill:#fdb912;fill-rule:nonzero;"/><path d="M238.786,213.01l-6.01,4.35l2.29,-7.04l-6,-4.369l7.421,-0l2.294,-7.055l2.29,7.055l7.426,-0l-6.005,4.36l2.299,7.064l-6.005,-4.365Z" style="fill:#fdb912;fill-rule:nonzero;"/><path d="M194.671,135.833l-6.01,4.364l2.294,-7.069l-6.005,-4.365l7.421,0l2.3,-7.045l2.29,7.045l7.42,0l-6.005,4.365l2.295,7.064l-6,-4.359Z" style="fill:#fdb912;fill-rule:nonzero;"/><path d="M187.85,161.547l-6,4.375l2.285,-7.084l-6.01,-4.341l7.431,0l2.289,-7.054l2.3,7.054l7.416,0l-6.005,4.345l2.299,7.08l-6.005,-4.375Z" style="fill:#fdb912;fill-rule:nonzero;"/><path d="M194.905,186.954l-6.005,4.355l2.295,-7.055l-6.005,-4.355l7.42,0l2.3,-7.069l2.295,7.069l7.411,0l-5.996,4.35l2.29,7.045l-6.005,-4.34Z" style="fill:#fdb912;fill-rule:nonzero;"/><path d="M213.282,117.178l-6.001,4.36l2.29,-7.055l-6.005,-4.36l7.416,-0l2.3,-7.06l2.294,7.06l7.412,-0l-5.996,4.36l2.295,7.05l-6.005,-4.355Z" style="fill:#fdb912;fill-rule:nonzero;"/><path d="M213.457,206.161l-6.014,4.369l2.304,-7.064l-6.01,-4.36l7.421,-0l2.299,-7.06l2.3,7.06l7.411,-0l-6.005,4.36l2.3,7.055l-6.006,-4.36Z" style="fill:#fdb912;fill-rule:nonzero;"/><path d="M339.794,100.329l-7.348,0l0,42.729l4.287,0c15.057,0 24.152,-5.507 24.152,-21.325c0,-13.46 -7.719,-21.404 -21.091,-21.404Zm-3.295,46.86l-8.632,-0l-0,-50.99l11.771,-0c16.355,-0 26.061,9.022 26.061,25.534c0,18.342 -12.152,25.456 -29.2,25.456Z" style="fill:#231f20;fill-rule:nonzero;"/><path d="M375.034,147.189l-0,-50.99l24.377,-0l-0,4.13l-19.793,0l0,18.645l18.723,0l0,3.979l-18.723,0l0,20.105l20.637,0l0,4.131l-25.221,-0Z" style="fill:#231f20;fill-rule:nonzero;"/><path d="M428.308,148.028c-11.468,0 -18.264,-7.264 -18.264,-18.576l0,-33.253l4.58,-0l-0,33.253c-0,8.558 4.818,14.295 13.684,14.295c8.866,-0 13.685,-5.737 13.685,-14.295l0,-33.253l4.585,-0l-0,33.253c-0,11.234 -6.953,18.576 -18.27,18.576Z" style="fill:#231f20;fill-rule:nonzero;"/><path d="M472.951,100.329l0,46.86l-4.589,-0l-0,-46.86l-14.905,0l-0,-4.13l34.473,-0l-0,4.13l-14.979,0Z" style="fill:#231f20;fill-rule:nonzero;"/><path d="M504.075,148.028c-3.837,0 -7.728,-0.537 -11.263,-2.143l0.4,-5.048c3.364,2.221 7.104,2.91 11.078,2.91c6.645,-0 11.541,-3.061 11.541,-10.092c0,-4.819 -4.203,-7.489 -9.09,-10.243l-5.268,-2.983c-4.75,-2.675 -9.032,-6.039 -9.032,-11.922c-0,-8.715 8.036,-13.07 15.974,-13.07c3.291,0 6.494,0.459 9.56,1.607l-0.464,4.584c-2.602,-1.455 -6.337,-1.909 -9.247,-1.909c-5.654,0 -11.078,2.138 -11.078,8.554c0,4.13 3.291,6.576 7.568,8.949l5.268,2.978c5.351,2.988 10.633,6.649 10.633,13.528c0,9.096 -7.504,14.3 -16.58,14.3Z" style="fill:#231f20;fill-rule:nonzero;"/><path d="M554.123,148.028c-15.97,0 -25.749,-10.628 -25.749,-26.295c-0,-14.984 10.248,-26.296 25.749,-26.296c3.52,0 8.573,0.611 11.785,2.066l-0.464,4.506c-3.222,-1.602 -7.87,-2.29 -11.463,-2.29c-13.221,0 -20.788,9.554 -20.788,22.014c-0,12.835 7.342,22.014 20.788,22.014c3.901,-0 8.1,-0.537 11.62,-2.3l0.444,4.287c-3.193,1.757 -8.251,2.294 -11.922,2.294Z" style="fill:#231f20;fill-rule:nonzero;"/><path d="M606.411,147.189l-0,-24.236l-26.139,0l-0,24.236l-4.585,-0l0,-50.99l4.585,-0l-0,22.629l26.139,-0l-0,-22.629l4.594,-0l0,50.99l-4.594,-0Z" style="fill:#231f20;fill-rule:nonzero;"/><path d="M624.456,147.189l-0,-50.99l24.386,-0l0,4.13l-19.802,0l-0,18.645l18.738,0l-0,3.979l-18.738,0l-0,20.105l20.642,0l-0,4.131l-25.226,-0Z" style="fill:#231f20;fill-rule:nonzero;"/><path d="M336.967,192.754l-4.521,0l0,20.481l5.434,0c6.806,0 14.369,-1.758 14.369,-10.013c-0,-8.94 -8.105,-10.468 -15.282,-10.468Zm2.671,-22.243l-7.192,-0l0,18.269l5.815,0c6.498,0 12.538,-2.143 12.538,-9.711c-0,-6.571 -5.503,-8.558 -11.161,-8.558Zm-2.217,46.849l-9.554,0l-0,-50.975l11.463,0c8.329,0 16.204,2.979 16.204,12.606c0,6.196 -3.744,10.243 -9.632,11.625c6.425,0.996 11.165,5.575 11.165,12.225c0,11.546 -9.862,14.519 -19.646,14.519Z" style="fill:#231f20;fill-rule:nonzero;"/><path d="M384.364,218.205c-11.473,0 -18.279,-7.26 -18.279,-18.572l-0,-33.248l4.589,0l-0,33.248c-0,8.559 4.814,14.29 13.69,14.29c8.861,0 13.675,-5.731 13.675,-14.29l-0,-33.248l4.584,0l0,33.248c0,11.234 -6.952,18.572 -18.259,18.572Z" style="fill:#231f20;fill-rule:nonzero;"/><path d="M446.04,217.36l-26.144,-45.55l0,45.55l-4.428,0l0,-50.975l6.264,0l26.139,45.556l0,-45.556l4.438,0l0,50.975l-6.269,0Z" style="fill:#231f20;fill-rule:nonzero;"/><path d="M477.682,170.511l-7.333,-0l-0,42.724l4.286,0c15.052,0 24.153,-5.502 24.153,-21.325c-0,-13.456 -7.729,-21.399 -21.106,-21.399Zm-3.281,46.849l-8.636,0l-0,-50.975l11.771,0c16.355,0 26.061,9.018 26.061,25.525c-0,18.352 -12.152,25.45 -29.196,25.45Z" style="fill:#231f20;fill-rule:nonzero;"/><path d="M514.455,217.36l-0,-50.975l24.386,0l0,4.126l-19.802,-0l0,18.65l18.733,-0l0,3.974l-18.733,-0l0,20.1l20.642,0l0,4.125l-25.226,0Z" style="fill:#231f20;fill-rule:nonzero;"/><path d="M558.722,218.205c-3.828,0 -7.734,-0.532 -11.249,-2.143l0.386,-5.044c3.359,2.217 7.113,2.905 11.092,2.905c6.65,0 11.532,-3.056 11.532,-10.086c-0,-4.819 -4.189,-7.49 -9.096,-10.248l-5.263,-2.973c-4.745,-2.685 -9.022,-6.044 -9.022,-11.927c-0,-8.72 8.017,-13.07 15.979,-13.07c3.267,-0 6.489,0.459 9.55,1.606l-0.459,4.585c-2.602,-1.455 -6.352,-1.914 -9.242,-1.914c-5.654,-0 -11.087,2.143 -11.087,8.558c-0,4.131 3.276,6.577 7.557,8.949l5.283,2.978c5.351,2.983 10.623,6.655 10.623,13.529c0,9.1 -7.494,14.295 -16.584,14.295Z" style="fill:#231f20;fill-rule:nonzero;"/><path d="M594.718,192.754l-4.501,0l-0,20.481l5.414,0c6.806,0 14.383,-1.758 14.383,-10.013c-0,-8.94 -8.1,-10.468 -15.296,-10.468Zm2.68,-22.243l-7.181,-0l-0,18.269l5.809,0c6.499,0 12.538,-2.143 12.538,-9.711c-0,-6.571 -5.493,-8.558 -11.166,-8.558Zm-2.221,46.849l-9.54,0l0,-50.975l11.468,0c8.325,0 16.2,2.979 16.2,12.606c-0,6.196 -3.765,10.243 -9.638,11.625c6.415,0.996 11.161,5.575 11.161,12.225c-0,11.546 -9.857,14.519 -19.651,14.519Z" style="fill:#231f20;fill-rule:nonzero;"/><path d="M642.734,170.662l-11.39,28.512l22.698,0l-11.308,-28.512Zm18.426,46.698l-5.512,-14.138l-25.91,-0l-5.654,14.138l-4.359,0l20.559,-50.975l4.975,0l20.627,50.975l-4.726,0Z" style="fill:#231f20;fill-rule:nonzero;"/><path d="M703.645,217.36l-26.14,-45.55l0,45.55l-4.423,0l0,-50.975l6.274,0l26.129,45.556l0,-45.556l4.428,0l0,50.975l-6.268,0Z" style="fill:#231f20;fill-rule:nonzero;"/><path d="M753.038,217.36l-25.065,-25.748l-0,25.748l-4.599,0l-0,-50.975l4.599,0l-0,23.235l23.39,-23.235l5.883,0l-24.86,23.923l26.989,27.052l-6.337,0Z" style="fill:#231f20;fill-rule:nonzero;"/><path d="M429.998,263.595c6.039,-0.01 9.486,-5.551 9.495,-12.381c-0.009,-5.976 -3.105,-12.103 -9.451,-12.113c-6.313,0.01 -9.482,5.824 -9.501,12.43c0.014,6.415 3.456,12.054 9.457,12.064Zm-14.095,-11.971c0.009,-9.731 6.088,-16.155 14.324,-16.17c8.412,0.015 13.846,6.483 13.861,15.584c-0.015,10.541 -6.455,16.194 -14.315,16.209c-8.148,-0.015 -13.861,-6.347 -13.87,-15.623Z" style="fill:#231f20;fill-rule:nonzero;"/><path d="M354.729,254.05l-0,-18.098l4.413,-0l0,18.196c0.034,6.737 2.925,9.432 6.845,9.447c4.375,-0.02 7.128,-2.798 7.152,-9.447l0,-18.196l4.424,-0l-0,17.922c-0.01,9.404 -5.044,13.358 -11.713,13.373c-6.312,-0.015 -11.116,-3.706 -11.121,-13.197Z" style="fill:#231f20;fill-rule:nonzero;"/><path d="M396.545,250.179c4.106,-0.02 6.61,-2.207 6.62,-5.542c-0.015,-3.769 -2.661,-5.37 -6.752,-5.443c-1.719,-0 -2.983,0.151 -3.642,0.312l-0,10.673l3.774,-0Zm7.66,16.575l-0.064,-0.122c-0.532,-0.962 -1.181,-3.52 -2.05,-7.309c-0.928,-4.155 -2.383,-5.556 -5.854,-5.722l-3.466,-0.005l-0,13.158l-4.38,-0l0,-30.363l0.181,-0.034c2.012,-0.405 4.858,-0.635 7.572,-0.635c4.209,0 6.972,0.772 8.93,2.534c1.587,1.406 2.465,3.535 2.465,5.932c0,3.94 -2.402,6.635 -5.477,7.821c2.206,0.948 3.525,3.13 4.208,6.137c0.981,4.228 1.719,7.163 2.319,8.271l0.186,0.337l-4.57,-0Z" style="fill:#231f20;fill-rule:nonzero;"/><path d="M489.287,266.754l-4.423,-0l0.024,-12.997l-9.779,-17.805l4.985,-0l4.34,8.495c1.108,2.158 1.972,3.93 2.856,5.902c0.825,-1.874 1.816,-3.749 2.91,-5.902l4.428,-8.495l4.999,-0l-10.34,17.649l-0,13.153Z" style="fill:#231f20;fill-rule:nonzero;"/><path d="M504.51,265.23l-0.142,-0.097l1.035,-3.447l0.068,-0.278l0.264,0.146c1.723,1.064 4.253,1.953 6.908,1.953c3.931,-0.024 6.108,-2.021 6.123,-4.951c-0.015,-2.724 -1.499,-4.228 -5.571,-5.819c-4.965,-1.758 -8.173,-4.404 -8.163,-8.817c0.01,-4.868 4.052,-8.461 10.043,-8.466c3.144,-0 5.434,0.727 6.82,1.518l0.152,0.088l-1.221,3.637l-0.229,-0.136c-0.972,-0.528 -2.969,-1.411 -5.654,-1.411c-4.047,0.014 -5.488,2.363 -5.493,4.325c0.005,2.7 1.704,4.004 5.884,5.634c5.165,1.978 7.904,4.56 7.889,9.13c-0.005,4.804 -3.598,8.998 -10.848,9.008c-2.968,-0.005 -6.196,-0.899 -7.865,-2.017Z" style="fill:#231f20;fill-rule:nonzero;"/><path d="M537.933,266.754l0,-27.018l-9.232,-0l-0,-3.784l22.922,-0l-0,3.784l-9.257,-0l0,27.018l-4.433,-0Z" style="fill:#231f20;fill-rule:nonzero;"/><path d="M558.595,266.749l-0,-30.797l16.848,-0l0,3.735l-12.469,-0l-0,9.144l11.786,0l-0,3.686l-11.786,0l-0,10.497l13.138,-0l-0,3.735l-17.517,-0Z" style="fill:#231f20;fill-rule:nonzero;"/><path d="M612.045,266.729l-0.771,-13.548c-0.201,-3.818 -0.45,-8.339 -0.454,-11.976c-0.977,3.261 -2.139,6.733 -3.521,10.468l-5.409,14.871l-3.31,-0l-4.946,-14.613c-1.269,-3.764 -2.377,-7.25 -3.198,-10.496c-0.102,3.598 -0.302,8.036 -0.546,12.068l-0.83,13.226l-4.199,0l2.158,-30.806l5.37,-0l5.249,14.832c1.166,3.505 2.143,6.644 2.895,9.627c0.771,-2.9 1.791,-6.054 3.041,-9.632l5.473,-14.827l5.361,-0l1.928,30.806l-4.291,0Z" style="fill:#231f20;fill-rule:nonzero;"/><path d="M327.872,266.749l-0,-30.797l16.838,-0l0,3.735l-12.469,-0l0,9.144l11.796,0l-0,3.686l-11.796,0l0,10.497l13.153,-0l-0,3.735l-17.522,-0Z" style="fill:#231f20;fill-rule:nonzero;"/><path d="M451.294,265.23l-0.137,-0.097l1.04,-3.447l0.083,-0.278l0.259,0.146c1.723,1.064 4.247,1.953 6.903,1.953c3.93,-0.024 6.103,-2.021 6.118,-4.951c-0.015,-2.724 -1.49,-4.228 -5.566,-5.819c-4.98,-1.758 -8.173,-4.404 -8.168,-8.817c0.015,-4.868 4.057,-8.461 10.043,-8.466c3.139,-0 5.433,0.727 6.82,1.518l0.161,0.088l-1.225,3.637l-0.235,-0.136c-0.971,-0.528 -2.968,-1.411 -5.653,-1.411c-4.048,0.014 -5.478,2.363 -5.493,4.325c0.01,2.7 1.704,4.004 5.888,5.634c5.161,1.978 7.9,4.56 7.89,9.13c-0.01,4.804 -3.603,8.998 -10.853,9.008c-2.974,-0.005 -6.186,-0.899 -7.875,-2.017Z" style="fill:#231f20;fill-rule:nonzero;"/></g></g></svg>