<?xml version="1.0" encoding="UTF-8"?>
<svg id="uuid-3a2393fd-14d6-45d4-908f-d274b4cff925" data-name="Ebene 1" xmlns="http://www.w3.org/2000/svg" width="300" height="100" xmlns:xlink="http://www.w3.org/1999/xlink" viewBox="0 0 300 100">
  <defs>
    <linearGradient id="uuid-2cb40beb-6da9-4f90-a911-671a4915076c" data-name="Unbenannter Verlauf 180" x1="44.787" y1="35.9253" x2="29.2545" y2="45.7176" gradientUnits="userSpaceOnUse">
      <stop offset="0" stop-color="#039a9a"/>
      <stop offset="1" stop-color="#00595c"/>
    </linearGradient>
    <linearGradient id="uuid-1643062b-a14d-4fc8-b1d1-90926501e26a" data-name="Unbenannter Verlauf 210" x1="80.7643" y1="9.9369" x2="66.0767" y2="63.1161" gradientUnits="userSpaceOnUse">
      <stop offset="0" stop-color="#90d033"/>
      <stop offset="1" stop-color="#03abab"/>
    </linearGradient>
    <linearGradient id="uuid-4cff49f0-7e64-4930-836c-db8305bb7ca0" data-name="Unbenannter Verlauf 195" x1="62.1345" y1="70.4056" x2="98.0939" y2="21.278" gradientUnits="userSpaceOnUse">
      <stop offset=".1733" stop-color="#00595c"/>
      <stop offset=".4223" stop-color="#039a9a"/>
      <stop offset=".7917" stop-color="#039a9a"/>
      <stop offset="1" stop-color="#00595c"/>
    </linearGradient>
    <linearGradient id="uuid-429a6ace-d418-4388-90cf-72ff06c287b4" data-name="Unbenannter Verlauf 210" x1="42.5282" y1="12.4464" x2="17.3866" y2="63.7488" xlink:href="#uuid-1643062b-a14d-4fc8-b1d1-90926501e26a"/>
  </defs>
  <g>
    <path d="M138.3519,95.825h2.6621c4.0817,0,7.454-2.6621,7.6315-7.6314.1774-4.7919-2.4847-7.6315-6.3891-7.6315h-3.9045v15.2629h0ZM133.56,76.6576h9.0512c6.2118,0,10.6485,4.6143,10.826,11.7134,0,6.3892-5.3239,11.3586-11.5359,11.3586h-8.3414v-23.0719h0ZM194.4341,76.6576h15.4404v3.9044h-10.4711v5.1469h9.7612v3.9045h-9.7612v6.3891h11.0035v3.7271h-15.9728v-23.0719h0ZM163.7308,99.7295v-3.7271h6.3891l-5.6792-14.553-6.9215,18.2801h-4.9694l8.8738-23.0719h6.0341l9.0513,23.0719h-12.7783ZM172.6046,80.562v-3.9044h19.8773v3.9044h-7.2765v19.1675h-5.1468v-19.1675h-7.454ZM222.2977,76.6576v3.9044h5.8567l-5.3243,14.0207-6.5666-17.9251h-5.1467l9.0513,23.0719h5.5017l8.8738-23.0719h-12.2458Z" fill="#039a9a" fill-rule="evenodd"/>
    <polygon points="133.4898 .0802 234.1891 .0802 234.1891 71.3157 133.4898 71.3157 133.4898 .0802 133.4898 .0802" fill="#90d033"/>
  </g>
  <g>
    <path d="M4.5197,96.014c.2975.1489.5899.2446.877.2869.2869.0428.5899.0638.9088.0638,1.0842,0,1.8655-.3293,2.3438-.9885.4784-.6588.7175-1.4773.7175-2.4554v-14.5414h4.7196v15.2429c0,1.9986-.5371,3.5612-1.6104,4.6877-1.0738,1.127-2.6099,1.69-4.6079,1.69-1.2332,0-2.4026-.1703-3.5078-.5102l.1595-3.4758Z" fill="#039a9a"/>
    <path d="M32.5724,99.6493l-.0956-2.3598c-.553.8719-1.2596,1.5417-2.1206,2.0091-.8609.4674-1.8974.7015-3.1092.7015-.7444,0-1.4404-.1066-2.0887-.3189-.6488-.2123-1.2228-.5261-1.722-.9407-.4998-.4145-.8929-.9247-1.18-1.5307-.2869-.6058-.4305-1.3124-.4305-2.1206,0-1.0628.2337-1.9398.7015-2.6308.4675-.6906,1.1002-1.2436,1.8975-1.6582.7971-.4145,1.711-.7016,2.7424-.8611,1.0309-.1595,2.1096-.2392,3.2368-.2392.2975,0,.6163.0055.9566.016.3399.0109.6588.0269.9567.0478v-.542c0-1.1266-.3298-1.9293-.9885-2.4077-.6592-.4784-1.5944-.7175-2.8062-.7175-.723,0-1.4989.1011-2.328.303-.8291.2023-1.6158.5053-2.3598.9088l-.1913-2.9338c.8291-.3397,1.7325-.6003,2.7105-.7812.9777-.1804,1.9134-.2711,2.8063-.2711,1.0842,0,2.0777.1066,2.9816.3189.9033.2128,1.6792.5581,2.3278,1.0364.6483.4784,1.1585,1.1162,1.5307,1.9133.3717.7973.5581,1.7809.5581,2.9497v6.3459c0,.8081.0104,1.4987.0318,2.0727.021.574.0638,1.1376.1276,1.6902h-4.1456ZM31.4244,92.0278c-.6378,0-1.281.0373-1.9292.1116-.6488.0748-1.2277.2182-1.738.4306-.5102.2127-.9247.5052-1.2436.8769-.3189.3723-.4784.856-.4784,1.451,0,.7867.2233,1.3767.6698,1.7699.4464.3936,1.0094.5899,1.69.5899.6588,0,1.2383-.1276,1.7379-.3827.4993-.2551.9089-.595,1.2277-1.0204.3189-.4251.5581-.9088.7175-1.451s.2392-1.1107.2392-1.7061v-.6696h-.8929Z" fill="#039a9a"/>
    <path d="M45.1522,99.6493v-22.9919h4.4006v9.6305c.4889-.9991,1.153-1.743,1.9931-2.2323.8395-.4888,1.8121-.7334,2.9178-.7334.9353,0,1.743.1386,2.4236.4147.6801.2765,1.2381.6696,1.6741,1.1798.4355.5102.7544,1.1321.9567,1.8655.2018.7334.303,1.5575.303,2.4714v10.3958h-4.4007v-9.3754c0-.4674-.0269-.9297-.0797-1.3872-.0533-.4568-.1754-.866-.3667-1.2277-.1914-.3612-.4624-.6482-.8132-.8609-.3509-.2123-.8242-.3189-1.4191-.3189-.6168,0-1.127.1276-1.5306.3827-.4041.2551-.7285.5849-.9726.9885-.2447.4041-.42.8664-.5262,1.3872-.1066.5212-.1595,1.0363-.1595,1.5466v8.8651h-4.4006Z" fill="#039a9a"/>
    <path d="M68.4883,99.6493v-12.4367c0-.595-.011-1.1849-.032-1.7699-.0214-.5844-.0638-1.1743-.1275-1.7698h4.1455l.0956,3.0932c.1914-.4465.4306-.877.7175-1.2915.2871-.4145.6219-.7813,1.0045-1.1002.3827-.3189.8023-.5789,1.2597-.7812.4569-.2018.9616-.303,1.5147-.303.2337,0,.4514.011.6537.0318.2018.0215.4092.0638.6219.1276l-.1276,3.9542c-.4254-.1485-.8824-.2231-1.3711-.2231-.7444,0-1.3663.1595-1.8655.4782-.4998.3189-.9039.7334-1.2118,1.2438-.3085.5102-.5316,1.0842-.6696,1.722-.1385.6378-.2073,1.2651-.2073,1.8814v7.1431h-4.4006Z" fill="#039a9a"/>
    <path d="M88.9448,92.6018c.0424,1.3821.5047,2.4714,1.3872,3.2686.8819.7973,2.1734,1.1958,3.8745,1.1958.7863,0,1.5785-.0956,2.3757-.2869s1.4719-.4465,2.025-.7653l.1913,3.0613c-.6378.2765-1.43.4998-2.3757.6696-.9462.1699-1.855.2551-2.7265.2551-2.9552,0-5.2033-.7384-6.7446-2.2163-1.5416-1.4773-2.3119-3.5447-2.3119-6.2024,0-1.1903.1914-2.2905.574-3.3005.3827-1.0095.9249-1.8814,1.6263-2.6149.7016-.7334,1.5356-1.3074,2.5033-1.722.9671-.4145,2.0458-.6219,3.2367-.6219,1.2756,0,2.3648.2024,3.2686.606.9033.4041,1.6314.9676,2.1844,1.6902.5526.7229.9567,1.5895,1.2118,2.5989.2551,1.01.3826,2.1206.3826,3.3324v1.0523h-10.6827ZM95.6734,90.1144c0-.5102-.0479-1.0094-.1435-1.4987-.0956-.4888-.2551-.9298-.4784-1.3234-.2231-.3931-.5371-.712-.9407-.9567-.4041-.2441-.9039-.3667-1.4987-.3667-.6168,0-1.148.1226-1.5945.3667-.4464.2447-.8187.5581-1.116.9408-.2981.3826-.5262.8241-.6857,1.3234-.1595.4998-.2501,1.0045-.271,1.5147h6.7285Z" fill="#039a9a"/>
  </g>
  <g>
    <path d="M45.1673,63.5599c2.7481-1.8881,5.0963-6.9623,5.9975-10.0478,3.6928-12.6415-5.4029-26.8675-18.2704-29.1455-5.0105-.8873-11.4474-.2796-16.1854,1.6599-.9301.3809-9.04,4.9129-8.5355,5.9352.0028.0062,5.8341,11.8287,5.842,11.8439-.3106-.6295,2.2975-2.7929,2.6042-3.0502,5.2817-4.4252,13.4541-5.277,18.1197.2572,4.3672,5.1793,1.9191,12.9545-4.5766,14.6181-3.5095.8989-7.2929.2397-9.9665-2.2773-2.5537-2.4039-4.9701-7.034-2.8132-10.4472-2.9715,4.2547-3.7382,10.4555-1.6564,15.1752.9068,2.0563,2.1287,4.0328,3.9067,5.4458,2.3747,1.8868,5.255,1.7833,7.7529,3.1415.0003.0003,7.3986,4.0229,17.781-3.1089Z" fill="url(#uuid-2cb40beb-6da9-4f90-a911-671a4915076c)"/>
    <path d="M99.8494,7.6744c.1906.2691-4.5782-7.6027-20.5506-7.6027s-22.07,9.5785-23.2644,17.6382c-1.0018,6.7602-.5692,36.7933-.5692,36.7933,0,0-.585,16.6895,20.9726,16.6895,0,0,13.3983-11.7519,13.4063-11.7585-1.5459,1.3553-5.8722,2.1951-7.6455,2.3511-14.2537,1.2527-12.4645-15.8062-12.4671-25.5324-.002-7.9658-.8606-17.9617,4.3223-24.5161,3.3173-4.1944,7.0915-6.6715,12.3675-7.0151,1.968-.1279,3.9372.0626,5.8775.4178,1.1396.2081,6.1221,1.7045,7.5506,2.5348Z" fill="url(#uuid-1643062b-a14d-4fc8-b1d1-90926501e26a)"/>
    <path d="M92.0185,4.4376c-4.6264-.5157-9.6867.2707-13.122,2.51-1.6006,1.0427-3.1709,2.757-4.385,4.234,1.4805-1.8011,5.0056-2.3656,7.1225-1.9752,5.4118.9968,6.8777,6.0119,7.2859,10.8777.6806,8.1214,1.0752,16.2919.2304,24.4047-.3251,3.1207-.8587,6.2408-1.8598,9.2217-.6984,2.0801-1.7615,4.1294-3.1274,5.856-3.7446,4.7368-9.4875,7.9255-15.5918,8.0439-2.7171.0527-7.6462-.7304-9.4935-3.0535.1893.2374,4.7181,7.3475,20.056,7.1104,5.4916-.0851,11.0413-1.3012,15.5252-4.6155,3.0139-2.2271,5.4-5.8831,6.5943-9.4292,1.4463-4.2936,1.7107-9.0384,2.0055-13.5312.3218-4.9099.3324-9.8341.2216-14.7516-.1108-4.9459-.2744-9.9307-1.0051-14.8301-.4208-2.8154-1.1475-5.9754-3.6213-7.696-1.9092-1.3276-4.3026-2.0939-6.8357-2.3762Z" fill="url(#uuid-4cff49f0-7e64-4930-836c-db8305bb7ca0)"/>
    <path d="M21.7951.0724c.0007-.001,16.6022,0,16.6022,0-5.8786,11.3485-12.3731,22.5066-17.7331,34.1099-3.8325,8.2957-6.7653,17.4063-.3948,25.4107,6.3959,8.0359,18.6555,8.8969,26.5501,2.431,0,0-6.1321,10.3724-23.3068,9.6089-8.6348-.3839-16.7978-5.0355-20.741-12.667-5.6694-10.9723-.6848-22.9933,5.834-35.4872,2.8187-5.4028,6.3542-11.8661,9.4522-17.114.2946-.4987,0,0,3.7373-6.2924Z" fill="url(#uuid-429a6ace-d418-4388-90cf-72ff06c287b4)"/>
  </g>
</svg>