<svg width="626px" height="167px" viewBox="0 0 626 167" version="1.1" xmlns="http://www.w3.org/2000/svg" xmlns:xlink="http://www.w3.org/1999/xlink" xml:space="preserve" xmlns:serif="http://www.serif.com/" style="fill-rule:evenodd;clip-rule:evenodd;stroke-linejoin:round;stroke-miterlimit:1.41421;"><path d="M26.76,158.74c-1.022,1.8 -2.484,3.311 -4.25,4.39c-1.295,0.857 -2.715,1.508 -4.21,1.93c-1.652,0.425 -3.354,0.627 -5.06,0.6c-2.347,0.018 -4.685,-0.284 -6.95,-0.9c-2.221,-0.637 -4.34,-1.59 -6.29,-2.83l2.17,-3.85c1.6,1.175 3.375,2.09 5.26,2.71c1.883,0.573 3.842,0.857 5.81,0.84c1.278,0.032 2.555,-0.099 3.8,-0.39c1.005,-0.286 1.943,-0.769 2.76,-1.42c1.924,-1.339 3.052,-3.557 3,-5.9c0,-3.647 -2.467,-6.213 -7.4,-7.7l-4.2,-1.22c-1.534,-0.429 -3.035,-0.971 -4.49,-1.62c-3.402,-1.576 -5.551,-5.042 -5.45,-8.79c-0.014,-1.66 0.327,-3.303 1,-4.82c0.624,-1.421 1.545,-2.693 2.7,-3.73c1.233,-1.082 2.667,-1.911 4.22,-2.44c1.764,-0.6 3.617,-0.894 5.48,-0.87c4.462,0.039 8.809,1.434 12.46,4l-2.17,3.55c-1,-0.64 -1.93,-1.18 -2.77,-1.62c-0.789,-0.416 -1.604,-0.78 -2.44,-1.09c-0.759,-0.275 -1.543,-0.476 -2.34,-0.6c-0.828,-0.123 -1.663,-0.183 -2.5,-0.18c-2.177,-0.137 -4.333,0.504 -6.08,1.81c-1.464,1.235 -2.268,3.087 -2.17,5c-0.06,1.499 0.523,2.955 1.6,4c1.543,1.263 3.336,2.186 5.26,2.71l4.76,1.5c1.524,0.432 2.996,1.028 4.39,1.78c1.092,0.622 2.07,1.427 2.89,2.38c0.875,0.997 1.554,2.151 2,3.4c1.179,3.091 0.904,6.555 -0.75,9.42l-0.04,-0.05Z" style="fill-rule:nonzero;"/><path d="M47.56,138.45l-6.27,0l0,19.33c-0.119,1.222 0.17,2.449 0.82,3.49c0.81,0.747 1.904,1.112 3,1c0.554,0.012 1.107,-0.038 1.65,-0.15c0.447,-0.108 0.882,-0.259 1.3,-0.45l0.66,3c-1.642,0.827 -3.462,1.239 -5.3,1.2c-0.719,0.008 -1.436,-0.062 -2.14,-0.21c-0.613,-0.138 -1.208,-0.349 -1.77,-0.63c-0.983,-0.457 -1.773,-1.247 -2.23,-2.23c-0.485,-1.206 -0.704,-2.502 -0.64,-3.8l0,-20.55l-3.91,0l0,-3.55l3.91,0c0,-0.72 0,-1.52 0.06,-2.41c0.06,-0.89 0.09,-1.7 0.15,-2.47c0.06,-0.77 0.15,-1.66 0.27,-2.71l4.94,-1.08c-0.12,1 -0.22,2 -0.3,2.83c-0.08,0.83 -0.15,1.78 -0.21,2.8c-0.06,1.02 -0.1,2 -0.1,3l7.53,0l-1.42,3.59Z" style="fill-rule:nonzero;"/><path d="M75.01,166c-1.01,-0.296 -1.917,-0.867 -2.62,-1.65c-0.701,-0.785 -1.208,-1.723 -1.48,-2.74c-1.191,1.256 -2.583,2.304 -4.12,3.1c-1.428,0.646 -2.983,0.963 -4.55,0.93c-1.58,0.047 -3.153,-0.218 -4.63,-0.78c-1.135,-0.437 -2.16,-1.12 -3,-2c-0.728,-0.78 -1.265,-1.718 -1.57,-2.74c-0.292,-0.974 -0.443,-1.984 -0.45,-3c-0.111,-3.192 1.473,-6.215 4.16,-7.94c2.773,-1.887 6.687,-2.83 11.74,-2.83c0.667,0 1.367,0.02 2.1,0.06l0,-2.09c0.021,-1.002 -0.029,-2.005 -0.15,-3c-0.09,-0.639 -0.373,-1.235 -0.81,-1.71c-0.459,-0.534 -1.038,-0.952 -1.69,-1.22c-0.735,-0.274 -1.516,-0.406 -2.3,-0.39c-0.892,0.005 -1.78,0.105 -2.65,0.3c-0.914,0.196 -1.81,0.467 -2.68,0.81c-0.831,0.314 -1.637,0.692 -2.41,1.13c-0.658,0.363 -1.275,0.795 -1.84,1.29l-2.34,-3.39c3.69,-2.579 8.078,-3.974 12.58,-4c4.253,0 7.023,1.563 8.31,4.69c0.345,0.927 0.548,1.902 0.6,2.89c0.08,1.13 0.1,2.37 0.06,3.73l-0.24,9.88c0,1.2 0,2.2 0,3c0.021,0.678 0.132,1.351 0.33,2c0.153,0.5 0.409,0.963 0.75,1.36c0.372,0.415 0.82,0.755 1.32,1l-2.42,3.31Zm-5.66,-16.46c-0.36,0 -0.76,0 -1.21,0c-1.617,-0.028 -3.231,0.133 -4.81,0.48c-1.146,0.239 -2.231,0.709 -3.19,1.38c-0.783,0.575 -1.389,1.358 -1.75,2.26c-0.367,0.957 -0.55,1.975 -0.54,3c0,3.653 1.727,5.48 5.18,5.48c1.519,0.001 3.006,-0.448 4.27,-1.29c1.297,-0.836 2.336,-2.017 3,-3.41l0.18,-7.82l-1.13,-0.08Z" style="fill-rule:nonzero;"/><path d="M96.86,138.45l-6.22,0l0,19.33c-0.121,1.221 0.164,2.448 0.81,3.49c0.811,0.746 1.904,1.11 3,1c0.557,0.012 1.114,-0.038 1.66,-0.15c0.443,-0.108 0.875,-0.259 1.29,-0.45l0.66,3c-1.638,0.827 -3.455,1.239 -5.29,1.2c-0.719,0.009 -1.437,-0.061 -2.14,-0.21c-0.617,-0.138 -1.214,-0.349 -1.78,-0.63c-0.978,-0.461 -1.764,-1.25 -2.22,-2.23c-0.491,-1.18 -0.719,-2.453 -0.67,-3.73l0,-20.62l-3.91,0l0,-3.55l3.91,0c0,-0.72 0,-1.52 0.06,-2.41c0.06,-0.89 0.09,-1.7 0.15,-2.47c0.06,-0.77 0.15,-1.66 0.27,-2.71l4.94,-1.08c-0.12,1 -0.22,2 -0.3,2.83c-0.08,0.83 -0.15,1.78 -0.21,2.8c-0.06,1.02 -0.09,2 -0.09,3l7.52,0l-1.44,3.59Z" style="fill-rule:nonzero;"/><path d="M109.77,128.25c-1.457,1.394 -3.783,1.394 -5.24,0c-0.667,-0.682 -1.028,-1.607 -1,-2.56c-0.035,-0.981 0.326,-1.936 1,-2.65c1.45,-1.409 3.79,-1.409 5.24,0c1.404,1.452 1.404,3.788 0,5.24l0,-0.03Zm-5.13,36.63l0,-29.88l4.87,-0.78l0,30.64l-4.87,0.02Z" style="fill-rule:nonzero;"/><path d="M138.85,159.94c-0.532,1.194 -1.325,2.253 -2.32,3.1c-1.054,0.889 -2.27,1.568 -3.58,2c-1.486,0.496 -3.044,0.74 -4.61,0.72c-1.964,-0.006 -3.919,-0.278 -5.81,-0.81c-1.827,-0.489 -3.577,-1.229 -5.2,-2.2l1.8,-3.49c2.842,1.815 6.138,2.796 9.51,2.83c1.595,0.085 3.169,-0.409 4.43,-1.39c1.109,-0.937 1.719,-2.34 1.65,-3.79c0.066,-1.188 -0.357,-2.352 -1.17,-3.22c-1.066,-0.915 -2.37,-1.508 -3.76,-1.71l-3.73,-0.79c-2.164,-0.352 -4.154,-1.407 -5.66,-3c-1.292,-1.453 -1.983,-3.346 -1.93,-5.29c-0.016,-1.289 0.25,-2.565 0.78,-3.74c0.517,-1.11 1.267,-2.096 2.2,-2.89c0.998,-0.831 2.14,-1.472 3.37,-1.89c1.387,-0.473 2.845,-0.706 4.31,-0.69c1.616,0.007 3.223,0.229 4.78,0.66c1.523,0.398 2.99,0.983 4.37,1.74l-1.75,3.5c-1.218,-0.604 -2.474,-1.129 -3.76,-1.57c-1.212,-0.404 -2.482,-0.606 -3.76,-0.6c-1.497,-0.082 -2.971,0.4 -4.13,1.35c-1.019,0.904 -1.581,2.219 -1.53,3.58c-0.039,1.027 0.32,2.03 1,2.8c0.936,0.851 2.114,1.389 3.37,1.54l4,0.84c5.34,1.13 8,3.91 8,8.37c0.007,1.394 -0.29,2.773 -0.87,4.04Z" style="fill-rule:nonzero;"/><path d="M158.64,138.45l-6.26,0l0,19.33c-0.124,1.222 0.165,2.451 0.82,3.49c0.81,0.747 1.904,1.112 3,1c0.554,0.012 1.107,-0.038 1.65,-0.15c0.446,-0.11 0.881,-0.26 1.3,-0.45l0.66,3c-1.642,0.827 -3.462,1.239 -5.3,1.2c-0.719,0.008 -1.436,-0.062 -2.14,-0.21c-0.601,-0.15 -1.182,-0.372 -1.73,-0.66c-0.983,-0.457 -1.773,-1.247 -2.23,-2.23c-0.482,-1.182 -0.707,-2.454 -0.66,-3.73l0,-20.59l-3.91,0l0,-3.55l3.91,0c0,-0.72 0,-1.52 0.06,-2.41c0.06,-0.89 0.09,-1.7 0.15,-2.47c0.06,-0.77 0.15,-1.66 0.27,-2.71l4.94,-1.08c-0.12,1 -0.23,2 -0.3,2.83c-0.07,0.83 -0.16,1.78 -0.22,2.8c-0.06,1.02 -0.09,2 -0.09,3l7.53,0l-1.45,3.59Z" style="fill-rule:nonzero;"/><path d="M171.64,128.25c-1.457,1.394 -3.783,1.394 -5.24,0c-0.685,-0.673 -1.065,-1.599 -1.05,-2.56c-0.021,-0.988 0.358,-1.945 1.05,-2.65c0.682,-0.713 1.634,-1.105 2.62,-1.08c2.018,0.025 3.664,1.692 3.664,3.71c0,0.962 -0.374,1.888 -1.044,2.58Zm-5.15,36.63l0,-29.88l4.88,-0.78l0,30.64l-4.88,0.02Z" style="fill-rule:nonzero;"/><path d="M200.64,159.94c-0.529,1.193 -1.318,2.252 -2.31,3.1c-1.058,0.889 -2.277,1.568 -3.59,2c-1.482,0.495 -3.037,0.738 -4.6,0.72c-1.964,-0.005 -3.919,-0.278 -5.81,-0.81c-1.83,-0.489 -3.583,-1.229 -5.21,-2.2l1.81,-3.49c2.842,1.815 6.138,2.796 9.51,2.83c1.592,0.083 3.162,-0.41 4.42,-1.39c1.115,-0.933 1.73,-2.338 1.66,-3.79c0.066,-1.188 -0.357,-2.352 -1.17,-3.22c-1.055,-0.897 -2.34,-1.483 -3.71,-1.69l-3.73,-0.79c-2.163,-0.356 -4.151,-1.41 -5.66,-3c-1.285,-1.457 -1.971,-3.348 -1.92,-5.29c-0.016,-1.289 0.25,-2.565 0.78,-3.74c0.514,-1.112 1.265,-2.099 2.2,-2.89c0.997,-0.833 2.139,-1.474 3.37,-1.89c1.384,-0.473 2.838,-0.707 4.3,-0.69c1.619,0.007 3.23,0.229 4.79,0.66c1.519,0.398 2.984,0.983 4.36,1.74l-1.74,3.5c-1.221,-0.605 -2.481,-1.129 -3.77,-1.57c-1.212,-0.405 -2.482,-0.607 -3.76,-0.6c-1.493,-0.079 -2.963,0.402 -4.12,1.35c-1.025,0.901 -1.591,2.217 -1.54,3.58c-0.045,1.028 0.314,2.033 1,2.8c0.935,0.852 2.114,1.391 3.37,1.54l4,0.84c5.34,1.13 8,3.91 8,8.37c-0.009,1.392 -0.327,2.765 -0.93,4.02Z" style="fill-rule:nonzero;"/><path d="M225.16,164.61c-1.56,0.652 -3.24,0.968 -4.93,0.93c-4.28,0 -7.46,-1.503 -9.54,-4.51c-0.997,-1.439 -1.737,-3.039 -2.19,-4.73c-0.488,-1.938 -0.72,-3.932 -0.69,-5.93c-0.105,-2.69 0.333,-5.374 1.29,-7.89c0.757,-1.809 1.846,-3.461 3.21,-4.87c2.1,-2.233 5.035,-3.498 8.1,-3.49c1.617,-0.044 3.222,0.298 4.68,1c1.241,0.638 2.411,1.406 3.49,2.29l-2.59,3.25c-0.837,-0.743 -1.768,-1.372 -2.77,-1.87c-0.935,-0.385 -1.94,-0.569 -2.95,-0.54c-1.155,-0.004 -2.289,0.307 -3.28,0.9c-1.009,0.584 -1.834,1.44 -2.38,2.47c-1.12,2.09 -1.69,5.36 -1.69,9.81c0,3.42 0.64,6 1.9,7.77c1.261,1.766 3.343,2.767 5.51,2.65c2.533,-0.026 4.915,-1.228 6.44,-3.25l2.59,3c-1.205,1.251 -2.628,2.271 -4.2,3.01Z" style="fill-rule:nonzero;"/><path d="M253.8,164.88l0,-20.71c0.019,-0.919 -0.061,-1.838 -0.24,-2.74c-0.133,-0.646 -0.445,-1.242 -0.9,-1.72c-0.416,-0.39 -0.91,-0.687 -1.45,-0.87c-0.643,-0.225 -1.319,-0.336 -2,-0.33c-1.588,0.039 -3.137,0.498 -4.49,1.33c-1.638,0.961 -3.078,2.227 -4.24,3.73l0,21.31l-4.7,0l0,-37c-0.012,-2.071 -0.274,-4.132 -0.78,-6.14l4.69,-0.91c0.516,2.335 0.781,4.719 0.79,7.11l0,7c0,1 -0.06,2.33 -0.18,4.09c1.383,-1.293 2.918,-2.415 4.57,-3.34c1.655,-0.93 3.522,-1.415 5.42,-1.41c1.718,-0.024 3.409,0.433 4.88,1.32c1.333,0.753 2.339,1.976 2.82,3.43c0.199,0.587 0.333,1.194 0.4,1.81c0.06,0.6 0.09,1.44 0.09,2.53l0,21.49l-4.68,0.02Z" style="fill-rule:nonzero;"/><path d="M272.88,150.67l0,0.72c-0.013,1.253 0.088,2.505 0.3,3.74c0.18,1.004 0.55,1.965 1.09,2.83c0.778,1.226 1.897,2.2 3.22,2.8c1.336,0.587 2.781,0.883 4.24,0.87c2.724,0.05 5.363,-0.966 7.35,-2.83l1.8,3c-1.339,1.213 -2.902,2.154 -4.6,2.77c-1.763,0.657 -3.629,0.995 -5.51,1c-4.167,0 -7.427,-1.413 -9.78,-4.24c-2.353,-2.827 -3.527,-6.73 -3.52,-11.71c-0.05,-2.167 0.233,-4.329 0.84,-6.41c0.59,-1.803 1.532,-3.472 2.77,-4.91c2.199,-2.693 5.523,-4.226 9,-4.15c3.044,-0.118 5.998,1.065 8.12,3.25c0.617,0.64 1.163,1.344 1.63,2.1c0.449,0.793 0.785,1.645 1,2.53c0.287,1.105 0.481,2.232 0.58,3.37c0.12,1.29 0.18,2.83 0.18,4.64l0,0.66l-18.71,-0.03Zm13.34,-7.58c-0.175,-0.935 -0.514,-1.832 -1,-2.65c-0.549,-0.834 -1.317,-1.502 -2.22,-1.93c-0.993,-0.486 -2.085,-0.732 -3.19,-0.72c-4.38,0 -6.69,3.11 -6.93,9.33l13.76,0c-0.02,-1.353 -0.16,-2.702 -0.42,-4.03Z" style="fill-rule:nonzero;"/><path d="M318.85,159.94c-0.536,1.192 -1.328,2.25 -2.32,3.1c-1.056,0.887 -2.271,1.566 -3.58,2c-1.486,0.496 -3.044,0.74 -4.61,0.72c-1.964,-0.005 -3.919,-0.278 -5.81,-0.81c-1.83,-0.489 -3.583,-1.229 -5.21,-2.2l1.81,-3.49c2.842,1.815 6.138,2.796 9.51,2.83c1.595,0.083 3.168,-0.411 4.43,-1.39c1.109,-0.937 1.719,-2.34 1.65,-3.79c0.066,-1.188 -0.357,-2.352 -1.17,-3.22c-1.066,-0.915 -2.37,-1.508 -3.76,-1.71l-3.74,-0.79c-2.163,-0.356 -4.151,-1.41 -5.66,-3c-1.285,-1.457 -1.971,-3.348 -1.92,-5.29c-0.016,-1.289 0.25,-2.565 0.78,-3.74c0.517,-1.11 1.267,-2.096 2.2,-2.89c0.998,-0.831 2.14,-1.472 3.37,-1.89c1.384,-0.473 2.838,-0.707 4.3,-0.69c1.619,0.007 3.23,0.229 4.79,0.66c1.52,0.397 2.985,0.981 4.36,1.74l-1.74,3.5c-1.219,-0.603 -2.475,-1.127 -3.76,-1.57c-1.215,-0.405 -2.489,-0.607 -3.77,-0.6c-1.493,-0.079 -2.963,0.402 -4.12,1.35c-1.021,0.903 -1.587,2.217 -1.54,3.58c-0.039,1.027 0.32,2.03 1,2.8c0.935,0.852 2.114,1.391 3.37,1.54l4,0.84c5.34,1.13 8,3.91 8,8.37c0.01,1.393 -0.283,2.772 -0.86,4.04Z" style="fill-rule:nonzero;"/><path d="M366.64,159.73c-1.096,1.809 -2.77,3.197 -4.75,3.94c-0.56,0.21 -1.11,0.39 -1.63,0.55c-0.609,0.179 -1.231,0.309 -1.86,0.39c-0.73,0.1 -1.6,0.17 -2.62,0.21c-1.02,0.04 -2.3,0.06 -3.82,0.06l-10.63,0l0,-41.3l11.09,0c1.35,0 2.45,0.07 3.34,0.15c0.738,0.061 1.473,0.161 2.2,0.3c0.58,0.12 1.13,0.26 1.65,0.42c2.045,0.668 3.835,1.954 5.12,3.68c1.26,1.662 1.935,3.695 1.92,5.78c0.052,2.022 -0.626,3.997 -1.91,5.56c-1.443,1.654 -3.332,2.859 -5.44,3.47c1.07,0.185 2.121,0.466 3.14,0.84c0.815,0.317 1.575,0.763 2.25,1.32c1.306,0.985 2.302,2.325 2.87,3.86c0.549,1.461 0.833,3.009 0.84,4.57c0.019,2.192 -0.592,4.344 -1.76,6.2Zm-6.83,-29.35c-0.827,-1.139 -2.033,-1.947 -3.4,-2.28c-0.62,-0.17 -1.258,-0.271 -1.9,-0.3c-0.667,-0.04 -1.537,-0.06 -2.61,-0.06l-5.84,0l0,13.6l7.16,0c0.956,0.009 1.911,-0.041 2.86,-0.15c0.695,-0.073 1.371,-0.266 2,-0.57c0.527,-0.269 0.988,-0.651 1.35,-1.12c0.395,-0.531 0.731,-1.105 1,-1.71c0.448,-1.003 0.677,-2.091 0.67,-3.19c0.051,-1.506 -0.392,-2.988 -1.26,-4.22l-0.03,0Zm2,18c-0.821,-1.29 -2.126,-2.198 -3.62,-2.52c-0.57,-0.12 -1.25,-0.22 -2.06,-0.31c-0.81,-0.09 -1.73,-0.12 -2.77,-0.12l-7.31,0l0,15.42l8.82,0c3.06,0 5.21,-0.67 6.46,-2c1.344,-1.59 2.015,-3.643 1.87,-5.72c0.046,-1.684 -0.426,-3.342 -1.35,-4.75l-0.04,0Z" style="fill-rule:nonzero;"/><path d="M398.22,166.14c-0.847,-0.64 -1.598,-1.398 -2.23,-2.25c-0.501,-0.778 -0.841,-1.649 -1,-2.56c-2.209,3.009 -5.78,4.725 -9.51,4.57c-1.708,0.054 -3.401,-0.339 -4.91,-1.14c-1.3,-0.707 -2.349,-1.801 -3,-3.13c-0.301,-0.632 -0.503,-1.307 -0.6,-2c-0.124,-0.817 -0.185,-1.643 -0.18,-2.47l0,-22l4.63,-0.9l0,21.55c-0.042,1.087 0.09,2.174 0.39,3.22c0.273,0.745 0.769,1.387 1.42,1.84c0.52,0.339 1.09,0.592 1.69,0.75c0.651,0.182 1.324,0.273 2,0.27c1.566,-0.025 3.085,-0.543 4.34,-1.48c1.423,-1.007 2.563,-2.364 3.31,-3.94l0,-21.27l4.63,-0.78l0,21.85c-0.054,1.428 0.097,2.856 0.45,4.24c0.301,0.944 0.854,1.788 1.6,2.44l-3.03,3.19Z" style="fill-rule:nonzero;"/><path d="M426.69,164.88l0,-20.29c0,-0.8 -0.02,-1.467 -0.06,-2c-0.029,-0.447 -0.089,-0.891 -0.18,-1.33c-0.067,-0.324 -0.178,-0.637 -0.33,-0.93c-0.146,-0.268 -0.317,-0.523 -0.51,-0.76c-0.858,-0.895 -2.074,-1.358 -3.31,-1.26c-0.679,0.016 -1.352,0.127 -2,0.33c-0.766,0.231 -1.509,0.532 -2.22,0.9c-0.766,0.399 -1.501,0.854 -2.2,1.36c-0.675,0.478 -1.301,1.02 -1.87,1.62l0,22.34l-4.57,0l0,-23.1c0.003,-2.159 -0.387,-4.301 -1.15,-6.32l4.58,-1.26c0.121,0.21 0.222,0.431 0.3,0.66c0.208,0.558 0.378,1.129 0.51,1.71c0.181,0.76 0.272,1.539 0.27,2.32c3.087,-3.087 6.237,-4.63 9.45,-4.63c1.569,-0.021 3.113,0.395 4.46,1.2c1.268,0.742 2.277,1.856 2.89,3.19c0.483,1.1 0.729,2.289 0.72,3.49l0,22.76l-4.78,0Z" style="fill-rule:nonzero;"/><path d="M461.31,164.88c-0.346,-0.968 -0.568,-1.976 -0.66,-3c-0.948,1.124 -2.133,2.026 -3.47,2.64c-1.423,0.57 -2.948,0.842 -4.48,0.8c-3.893,0 -6.893,-1.333 -9,-4c-2.107,-2.667 -3.17,-6.4 -3.19,-11.2c0,-6.42 2.067,-11.057 6.2,-13.91c1.661,-1.254 3.699,-1.91 5.78,-1.86c1.603,-0.024 3.19,0.318 4.64,1c1.375,0.653 2.572,1.627 3.49,2.84l0,-0.73l0,-3.92l0,-12.61l4.69,0.78l0,33.48c0,2.61 0.07,4.65 0.21,6.14c0.082,1.208 0.317,2.401 0.7,3.55l-4.91,0Zm-0.84,-23.48c-0.743,-1.016 -1.735,-1.826 -2.88,-2.35c-1.408,-0.57 -2.922,-0.836 -4.44,-0.78c-2.306,-0.084 -4.477,1.125 -5.62,3.13c-0.7,1.111 -1.21,2.331 -1.51,3.61c-0.318,1.667 -0.459,3.363 -0.42,5.06c-0.013,1.527 0.067,3.053 0.24,4.57c0.123,1.14 0.462,2.247 1,3.26c0.556,1.104 1.412,2.03 2.47,2.67c1.098,0.579 2.329,0.862 3.57,0.82c1.055,0.03 2.107,-0.122 3.11,-0.45c0.956,-0.376 1.86,-0.874 2.69,-1.48c0.764,-0.575 1.387,-1.317 1.82,-2.17l-0.03,-15.89Z" style="fill-rule:nonzero;"/><path d="M479.64,150.67l0,0.72c-0.013,1.253 0.088,2.505 0.3,3.74c0.172,1.005 0.539,1.966 1.08,2.83c0.783,1.222 1.901,2.194 3.22,2.8c3.915,1.653 8.455,0.87 11.59,-2l1.81,3c-1.341,1.215 -2.907,2.156 -4.61,2.77c-1.759,0.657 -3.622,0.996 -5.5,1c-4.18,0 -7.443,-1.413 -9.79,-4.24c-2.347,-2.827 -3.52,-6.73 -3.52,-11.71c-0.05,-2.167 0.233,-4.329 0.84,-6.41c0.598,-1.8 1.539,-3.467 2.77,-4.91c2.199,-2.693 5.523,-4.226 9,-4.15c3.046,-0.115 6.003,1.066 8.13,3.25c0.611,0.645 1.157,1.348 1.63,2.1c0.449,0.793 0.785,1.645 1,2.53c0.284,1.105 0.474,2.233 0.57,3.37c0.12,1.29 0.18,2.83 0.18,4.64l0,0.66l-18.7,0.01Zm13.33,-7.58c-0.179,-0.934 -0.518,-1.83 -1,-2.65c-0.551,-0.837 -1.323,-1.505 -2.23,-1.93c-0.992,-0.488 -2.085,-0.735 -3.19,-0.72c-4.373,0 -6.68,3.11 -6.92,9.33l13.72,0c0.003,-1.351 -0.114,-2.7 -0.35,-4.03l-0.03,0Z" style="fill-rule:nonzero;"/><path d="M525.64,159.94c-0.529,1.195 -1.322,2.256 -2.32,3.1c-1.053,0.891 -2.269,1.571 -3.58,2c-1.482,0.495 -3.037,0.738 -4.6,0.72c-1.964,-0.005 -3.919,-0.277 -5.81,-0.81c-1.83,-0.489 -3.583,-1.229 -5.21,-2.2l1.81,-3.49c2.842,1.815 6.138,2.796 9.51,2.83c1.592,0.083 3.162,-0.41 4.42,-1.39c1.115,-0.933 1.73,-2.338 1.66,-3.79c0.067,-1.189 -0.361,-2.355 -1.18,-3.22c-1.065,-0.917 -2.369,-1.51 -3.76,-1.71l-3.73,-0.79c-2.164,-0.352 -4.154,-1.407 -5.66,-3c-1.288,-1.456 -1.978,-3.347 -1.93,-5.29c-0.013,-1.289 0.256,-2.566 0.79,-3.74c0.513,-1.11 1.26,-2.096 2.19,-2.89c1,-0.829 2.141,-1.469 3.37,-1.89c1.387,-0.473 2.845,-0.706 4.31,-0.69c1.619,0.008 3.229,0.23 4.79,0.66c1.519,0.4 2.983,0.984 4.36,1.74l-1.75,3.5c-1.218,-0.604 -2.474,-1.129 -3.76,-1.57c-1.212,-0.405 -2.482,-0.607 -3.76,-0.6c-1.493,-0.079 -2.963,0.402 -4.12,1.35c-1.025,0.901 -1.591,2.217 -1.54,3.58c-0.039,1.027 0.32,2.03 1,2.8c0.936,0.851 2.114,1.389 3.37,1.54l4,0.84c5.33,1.13 8,3.91 8,8.37c0.007,1.394 -0.29,2.773 -0.87,4.04Z" style="fill-rule:nonzero;"/><path d="M554.26,166c-1.01,-0.296 -1.917,-0.867 -2.62,-1.65c-0.701,-0.785 -1.208,-1.723 -1.48,-2.74c-1.191,1.256 -2.583,2.304 -4.12,3.1c-1.428,0.646 -2.983,0.963 -4.55,0.93c-1.58,0.047 -3.153,-0.218 -4.63,-0.78c-1.135,-0.437 -2.16,-1.12 -3,-2c-0.731,-0.777 -1.269,-1.716 -1.57,-2.74c-0.292,-0.974 -0.443,-1.984 -0.45,-3c-0.111,-3.192 1.473,-6.215 4.16,-7.94c2.767,-1.887 6.68,-2.83 11.74,-2.83c0.667,0 1.367,0.02 2.1,0.06l0,-2.09c0.021,-1.002 -0.029,-2.005 -0.15,-3c-0.09,-0.639 -0.373,-1.235 -0.81,-1.71c-0.459,-0.534 -1.038,-0.952 -1.69,-1.22c-0.748,-0.279 -1.542,-0.411 -2.34,-0.39c-0.892,0.005 -1.78,0.105 -2.65,0.3c-0.914,0.196 -1.81,0.467 -2.68,0.81c-0.831,0.314 -1.637,0.692 -2.41,1.13c-0.658,0.363 -1.275,0.795 -1.84,1.29l-2.34,-3.39c3.69,-2.579 8.078,-3.974 12.58,-4c4.253,0 7.023,1.563 8.31,4.69c0.345,0.927 0.548,1.902 0.6,2.89c0.08,1.13 0.1,2.37 0.06,3.73l-0.24,9.88c0,1.2 0,2.2 0,3c0.021,0.678 0.132,1.351 0.33,2c0.153,0.5 0.409,0.963 0.75,1.36c0.372,0.415 0.82,0.755 1.32,1l-2.38,3.31Zm-5.62,-16.44c-0.36,0 -0.76,0 -1.21,0c-1.617,-0.028 -3.231,0.133 -4.81,0.48c-1.146,0.239 -2.231,0.709 -3.19,1.38c-0.783,0.575 -1.389,1.358 -1.75,2.26c-0.367,0.957 -0.55,1.975 -0.54,3c0,3.65 1.72,5.48 5.18,5.48c1.519,0.001 3.006,-0.448 4.27,-1.29c1.297,-0.836 2.336,-2.017 3,-3.41l0.18,-7.82l-1.13,-0.08Z" style="fill-rule:nonzero;"/><path d="M597.84,164.88l0,-22.16c0,-2.92 -1.28,-4.39 -3.85,-4.39c-1.37,0.001 -2.707,0.431 -3.82,1.23c-1.452,1.053 -2.832,2.202 -4.13,3.44l0,21.91l-4.75,0l0,-21.34c0.013,-0.767 -0.047,-1.534 -0.18,-2.29c-0.108,-0.565 -0.336,-1.101 -0.67,-1.57c-0.787,-0.846 -1.918,-1.288 -3.07,-1.2c-1.231,0.019 -2.44,0.338 -3.52,0.93c-1.485,0.837 -2.868,1.844 -4.12,3l0,22.4l-4.52,0l0,-23.2c-0.001,-2.172 -0.366,-4.329 -1.08,-6.38l4.57,-1.08c0.127,0.208 0.231,0.43 0.31,0.66c0.207,0.552 0.377,1.116 0.51,1.69c0.176,0.686 0.266,1.392 0.27,2.1c0.526,-0.604 1.109,-1.157 1.74,-1.65c0.688,-0.548 1.425,-1.034 2.2,-1.45c0.77,-0.408 1.577,-0.742 2.41,-1c0.768,-0.252 1.571,-0.384 2.38,-0.39c1.491,0.002 2.947,0.452 4.18,1.29c1.323,0.882 2.31,2.187 2.8,3.7c1.374,-1.468 2.983,-2.698 4.76,-3.64c1.49,-0.837 3.161,-1.3 4.87,-1.35c2.057,-0.081 4.049,0.742 5.45,2.25c1.426,1.614 2.172,3.719 2.08,5.87l0,22.64l-4.82,-0.02Z" style="fill-rule:nonzero;"/><path d="M624.39,138.45l-6.26,0l0,19.33c-0.121,1.221 0.164,2.448 0.81,3.49c0.811,0.746 1.904,1.11 3,1c0.557,0.012 1.114,-0.038 1.66,-0.15c0.443,-0.108 0.875,-0.259 1.29,-0.45l0.66,3c-1.638,0.827 -3.455,1.239 -5.29,1.2c-0.719,0.009 -1.437,-0.061 -2.14,-0.21c-0.617,-0.138 -1.214,-0.349 -1.78,-0.63c-0.978,-0.464 -1.766,-1.252 -2.23,-2.23c-0.482,-1.182 -0.707,-2.454 -0.66,-3.73l0,-20.62l-3.91,0l0,-3.55l3.91,0c0,-0.72 0,-1.52 0.06,-2.41c0.06,-0.89 0.09,-1.7 0.15,-2.47c0.06,-0.77 0.15,-1.66 0.27,-2.71l4.94,-1.08c-0.12,1 -0.22,2 -0.3,2.83c-0.08,0.83 -0.15,1.78 -0.21,2.8c-0.06,1.02 -0.09,2 -0.09,3l7.52,0l-1.4,3.59Z" style="fill-rule:nonzero;"/><path d="M502.29,14.75l-21.3,0l0,72.61l-22.2,0l0,-72.61l-21.9,0l0,-12.75l65.4,0l0,12.75Z" style="fill:#999;fill-rule:nonzero;"/><path d="M57.83,70c-3.167,4 -7.897,6 -14.19,6l-19.76,0l-0.3,-63.25l17.87,0c5.966,-0.201 11.66,2.566 15.19,7.38c3.733,4.953 5.6,12.087 5.6,21.4l0.3,5.74c0.027,11.193 -1.543,18.77 -4.71,22.73Zm26.65,-29c0,-12.667 -3.18,-22.667 -9.54,-30c-6.36,-7.333 -16.917,-11 -31.67,-11l-41.9,0l0.31,88.76l45.6,0c12.373,0 21.707,-3.357 28,-10.07c6.293,-6.713 9.45,-16.997 9.47,-30.85l-0.27,-6.84Z" style="fill:#999;fill-rule:nonzero;"/><path d="M285.42,62c0,9.073 -3.47,15.77 -10.41,20.09c-6.94,4.32 -16.59,6.483 -28.95,6.49c-5.984,0.067 -11.966,-0.291 -17.9,-1.07c-4.072,-0.538 -8.088,-1.438 -12,-2.69l0,-14.57c2.48,1.333 6.363,2.533 11.65,3.6c5.136,1.084 10.371,1.637 15.62,1.65c7.2,0 12.157,-0.837 14.87,-2.51c2.713,-1.673 4.067,-4.477 4.06,-8.41c-0.014,-2.512 -1.073,-4.908 -2.92,-6.61c-1.95,-1.93 -11.58,-4.46 -20.73,-7.59c-7.28,-2.607 -12.913,-5.897 -16.9,-9.87c-3.987,-3.973 -5.987,-9.39 -6,-16.25c0,-6.56 3.217,-12.11 9.65,-16.65c6.433,-4.54 15.327,-6.81 26.68,-6.81c6.331,-0.033 12.658,0.348 18.94,1.14c3.127,0.466 6.22,1.134 9.26,2l0,13.2c-3.733,-0.76 -7.437,-1.45 -11.11,-2.07c-5.253,-0.624 -10.54,-0.931 -15.83,-0.92c-5.88,0 -10.12,0.79 -12.72,2.37c-2.6,1.58 -3.897,3.53 -3.89,5.85c0,3.04 0.973,5.33 2.92,6.87c1.947,1.54 7.663,3.83 17.15,6.87c8.83,2.78 19.2,6.31 22.95,10.59c3.719,4.216 5.722,9.679 5.61,15.3Z" style="fill:#999;fill-rule:nonzero;"/><path d="M356.28,14.75l-21.3,0l0,72.61l-22.21,0l0,-72.61l-21.9,0l0,-12.75l65.41,0l0,12.75Z" style="fill:#999;fill-rule:nonzero;"/><path d="M383.02,54.65l11.31,-31.45l12,31.45l-23.31,0Zm23.86,-52.65l-20.6,0l-33,85.36l18,0l7.36,-20.36l32.37,0l7.22,20.41l22.6,0l-33.95,-85.41Z" style="fill:#999;fill-rule:nonzero;"/><rect x="517.26" y="2" width="22.2" height="85.36" style="fill:#999;fill-rule:nonzero;"/><path d="M625.56,62c0,9.073 -3.47,15.77 -10.41,20.09c-6.94,4.32 -16.607,6.483 -29,6.49c-5.984,0.067 -11.966,-0.291 -17.9,-1.07c-4.072,-0.538 -8.088,-1.438 -12,-2.69l0,-14.57c2.48,1.333 6.363,2.533 11.65,3.6c5.136,1.083 10.371,1.636 15.62,1.65c7.2,0 12.157,-0.837 14.87,-2.51c2.713,-1.673 4.07,-4.477 4.07,-8.41c-0.024,-2.501 -1.081,-4.884 -2.92,-6.58c-1.95,-1.93 -12.26,-4.46 -21.4,-7.59c-7.28,-2.607 -12.917,-5.897 -16.91,-9.87c-3.993,-3.973 -5.993,-9.39 -6,-16.25c0,-6.56 3.217,-12.11 9.65,-16.65c6.433,-4.54 15.353,-6.82 26.76,-6.84c5.5,0 15.21,0.38 19.61,1.14c3.13,0.468 6.226,1.136 9.27,2l0,13.2c-3.733,-0.78 -7.433,-1.473 -11.1,-2.08c-5.478,-0.624 -10.987,-0.931 -16.5,-0.92c-5.893,0 -10.133,0.79 -12.72,2.37c-2.6,1.57 -3.89,3.52 -3.89,5.85c0,3.04 0.973,5.33 2.92,6.87c1.947,1.54 7.66,3.83 17.14,6.87c8.83,2.78 19.88,6.31 23.63,10.59c3.703,4.226 5.689,9.692 5.56,15.31Z" style="fill:#999;fill-rule:nonzero;"/><path d="M100.51,66.18l0,-57.64l20.55,0l0,57.54l-20.55,0.1Z" style="fill-rule:nonzero;"/><path d="M137.92,66.16l0,-44.14l20.54,0l0,44.04l-20.54,0.1Z" style="fill:#c03;fill-rule:nonzero;"/><path d="M176.15,66.13l0,-65.39l20.55,0l0,65.37l-20.55,0.02Z" style="fill:#fc0;fill-rule:nonzero;"/><rect x="99.51" y="73.43" width="98.19" height="14.73" style="fill:#999;"/></svg>