<?xml version="1.0" encoding="UTF-8" standalone="no"?>
<svg
   width="699.99957"
   height="126.254"
   viewBox="0 0 699.99957 126.254"
   fill="none"
   version="1.1"
   id="svg24"
   sodipodi:docname="FastBill-Logo-Black.svg"
   inkscape:version="1.1.2 (0a00cf5339, 2022-02-04)"
   xmlns:inkscape="http://www.inkscape.org/namespaces/inkscape"
   xmlns:sodipodi="http://sodipodi.sourceforge.net/DTD/sodipodi-0.dtd"
   xmlns="http://www.w3.org/2000/svg"
   xmlns:svg="http://www.w3.org/2000/svg">
  <defs
     id="defs28" />
  <sodipodi:namedview
     id="namedview26"
     pagecolor="#ffffff"
     bordercolor="#666666"
     borderopacity="1.0"
     inkscape:pageshadow="2"
     inkscape:pageopacity="0.0"
     inkscape:pagecheckerboard="0"
     showgrid="false"
     fit-margin-top="0"
     fit-margin-left="0"
     fit-margin-right="0"
     fit-margin-bottom="0"
     inkscape:zoom="2.0114286"
     inkscape:cx="218.25284"
     inkscape:cy="130.50426"
     inkscape:window-width="1850"
     inkscape:window-height="1016"
     inkscape:window-x="70"
     inkscape:window-y="27"
     inkscape:window-maximized="1"
     inkscape:current-layer="svg24" />
  <path
     fill-rule="evenodd"
     clip-rule="evenodd"
     d="M 699.509,65.1795 C 703.707,31.075 680.56,4.26154 645.528,4.26154 h -26.092 c -1.712,0 -3.411,0.68935 -4.767,1.80827 -1.363,1.11313 -2.383,2.65517 -2.745,4.35799 -0.73,3.4063 1.453,6.1746 4.876,6.1746 h 26.093 c 30.252,0 49.635,24.5062 43.202,54.6269 l -1.86,8.6999 0.09,-0.1665 c -0.542,3.2738 1.615,5.8891 4.947,5.8891 3.101,0 6.156,-2.2636 7.254,-5.21 l 0.413,-1.9517 1.55,-7.2608 c 0.439,-2.041 0.775,-4.0544 1.02,-6.0498 z"
     fill="#84bf41"
     id="path2" />
  <path
     fill-rule="evenodd"
     clip-rule="evenodd"
     d="m 640.258,28.9362 h -50.17 c -3.417,0 -6.782,2.7607 -7.505,6.1663 -0.724,3.3702 1.408,6.1116 4.766,6.1682 h 50.274 c 16.592,0 27.223,13.4405 23.697,29.9586 l -5.69,26.638 c -0.724,3.4067 1.459,6.1667 4.882,6.1667 3.417,0 6.782,-2.76 7.512,-6.1667 l 5.683,-26.638 c 4.98,-23.3197 -10.03,-42.2931 -33.449,-42.2931 z"
     fill="#84bf41"
     id="path4" />
  <path
     fill-rule="evenodd"
     clip-rule="evenodd"
     d="m 626.372,105.212 c -0.568,2.662 -3.307,4.913 -5.981,4.913 h -65.089 c -2.674,0 -4.444,-2.251 -3.876,-4.913 l 6.982,-32.7229 c 0.569,-2.6616 3.307,-4.9071 5.974,-4.9071 h 65.097 c 2.667,0 4.443,2.2455 3.875,4.9071 z m 8.622,-51.6075 h -70.16 c -4.863,0 -9.713,1.9832 -13.601,5.1772 -3.888,3.196 -6.821,7.5971 -7.854,12.4477 l -7.524,35.2426 c -2.067,9.692 4.198,17.625 13.931,17.625 h 70.16 c 4.87,0 9.714,-1.983 13.602,-5.18 3.894,-3.193 6.826,-7.602 7.86,-12.445 l 7.524,-35.2426 c 2.067,-9.6922 -4.205,-17.6249 -13.938,-17.6249 z"
     fill="#84bf41"
     id="path6" />
  <path
     fill-rule="evenodd"
     clip-rule="evenodd"
     d="m 23.3279,119.287 c -0.6666,3.151 -2.8328,4.976 -5.4989,4.976 H 3.66591 C 1.49969,124.263 0,123.765 0,121.443 0,119.95 0.333264,118.622 0.499896,117.628 L 23.1612,12.2766 c 0.6672,-3.15229 2.3335,-5.30846 5.6655,-5.30846 h 59.3198 c 2.5001,0 4.1664,1.16136 4.1664,3.15226 0,1.825 -0.6672,5.475 -2.4995,13.1061 -0.6672,2.6552 -2.3335,3.8165 -5.4988,3.8165 H 43.1571 l -6.8319,30.5265 h 34.9921 c 2.4994,0 4.3324,0.4971 4.3324,2.9858 0,1.4931 -0.9998,6.9675 -2.4995,13.2726 -0.6665,2.8211 -2.3328,3.8159 -5.4988,3.8159 H 32.326 Z"
     fill="#0f0f13"
     id="path8" />
  <path
     fill-rule="evenodd"
     clip-rule="evenodd"
     d="m 141.635,60.8877 c -2.499,-1.3273 -7.664,-2.1575 -11.83,-2.1575 -7.666,0 -12.331,1.9916 -16.163,5.6416 -6.332,6.3038 -9.998,19.9083 -9.998,30.0287 0,9.4565 3.832,12.9405 12.164,12.9405 4.832,0 9.498,-0.663 13.831,-3.318 0.999,-0.663 1.998,-1.328 2.498,-2.157 0.5,-0.996 1.167,-2.1564 1.333,-3.3177 z m 4.166,63.3753 H 134.47 c -3.666,0 -4.499,-1.327 -4.499,-3.318 0,-0.663 0.167,-2.157 0.333,-2.82 -6.332,5.972 -14.496,7.963 -24.994,7.963 -15.6626,0 -24.9946,-8.295 -24.9946,-26.047 0,-16.2579 5.4989,-39.8176 19.3293,-51.0987 8.1653,-6.6363 17.3293,-8.6272 29.6603,-8.6272 6.998,0 14.163,1.825 16.995,4.646 0.834,-2.324 1.833,-4.149 5.5,-4.149 h 10.831 c 2.832,0 4.332,1.6591 4.332,3.8159 0,1.162 -0.333,3.3182 -0.833,5.6416 l -14.663,68.5184 c -0.834,4.148 -1.833,5.475 -5.666,5.475 z"
     fill="#0f0f13"
     id="path10" />
  <path
     fill-rule="evenodd"
     clip-rule="evenodd"
     d="m 235.449,95.5613 c 0,9.7897 -2.834,17.5867 -8.499,22.8957 -6.165,5.474 -15.496,7.797 -28.327,7.797 -9.498,0 -22.661,-1.327 -28.993,-4.479 -1.5,-0.664 -2.5,-1.825 -2.5,-3.318 0,-2.489 1.667,-7.797 3.333,-11.779 0.833,-1.992 2.166,-2.987 4.665,-2.987 1,0 3.5,0.498 4.499,0.829 6.499,2.158 13.83,3.153 21.163,3.153 5.998,0 9.164,-0.829 10.664,-2.488 1.666,-1.659 1.833,-3.153 1.833,-4.978 0,-2.9866 -1.334,-4.6457 -8.332,-6.8019 l -9.665,-3.1529 c -10.83,-3.3181 -17.829,-8.9584 -17.829,-19.9083 0,-9.2903 2.833,-17.9175 10.831,-23.8908 6.165,-4.6448 14.997,-6.9669 27.661,-6.9669 6.665,0 15.163,0.4971 21.495,2.3221 2.166,0.663 3.166,1.9909 3.166,3.65 0,1.3272 -1.167,8.2954 -2.499,12.2772 -0.667,1.6591 -2.5,2.8198 -4.333,2.8198 -1.167,0 -3.332,-0.3318 -4.332,-0.4977 -6.999,-1.4932 -12.331,-1.9909 -16.997,-1.9909 -4.999,0 -8.165,0.6636 -10.164,1.8249 -1.833,1.162 -2.666,3.3182 -2.666,5.9721 0,2.8211 1.833,4.4802 8.665,6.8029 l 9.831,3.3182 c 11.497,3.8152 17.33,9.9545 17.33,19.5765 z"
     fill="#0f0f13"
     id="path12" />
  <path
     fill-rule="evenodd"
     clip-rule="evenodd"
     d="m 276.107,93.5704 c -0.999,4.8119 -1.333,7.6316 -1.333,9.6236 0,2.985 2.5,4.479 5.833,4.479 2.832,0 4.831,-0.332 6.165,-0.332 1.999,0 3.165,1.162 3.332,3.484 0.167,2.986 0.167,6.138 0.167,8.627 0,2.986 -2.333,4.811 -5.332,5.475 -3.833,0.829 -9.332,1.327 -14.164,1.327 -9.831,0 -19.662,-3.152 -19.662,-15.263 0,-3.65 0.5,-7.466 1.499,-11.7798 l 8.499,-39.1537 h -7.166 c -2.499,0 -3.665,-1.1607 -3.665,-2.9863 0,-1.4926 0.333,-3.8159 1.999,-10.95 0.667,-2.6539 2.334,-4.4789 5.332,-4.4789 h 7.832 c 0,-0.1652 1.499,-6.9681 4.332,-17.9174 0.834,-2.9864 2.333,-4.9773 5.165,-4.9773 h 12.998 c 1.999,0 3.166,0.8289 3.166,3.1523 0,0.9948 -0.334,2.9857 -0.5,3.9818 l -3.499,15.7606 h 11.497 c 3,0 3.833,1.1607 3.833,2.9857 0,0.9961 -0.334,3.8166 -2,11.7795 -0.666,2.8211 -2.499,3.65 -5.332,3.65 h -11.664 z"
     fill="#0f0f13"
     id="path14" />
  <path
     fill-rule="evenodd"
     clip-rule="evenodd"
     d="m 349.59,54.2514 c 6.498,0 11.664,-0.4977 14.663,-1.4932 7.332,-2.3227 10.165,-8.7931 10.165,-15.2642 0,-6.801 -3.333,-9.4561 -7.332,-10.6175 -2.999,-0.8295 -8.498,-0.9948 -13.83,-0.9948 h -8.331 l -6.166,28.3697 z M 338.593,104.52 c 7.664,0 14.996,-0.497 18.495,-1.659 7.332,-2.654 10.664,-9.6218 10.664,-17.2529 0,-5.475 -2.166,-9.1263 -6.165,-10.7841 -3.499,-1.4932 -8.165,-1.8263 -14.663,-1.8263 h -12.165 l -6.831,31.5223 z m -32.826,19.577 c -3,0 -4,-1.493 -4,-3.484 0,-0.829 0.334,-2.156 0.5,-2.82 L 324.762,12.2766 c 0.667,-2.98639 2.166,-5.30846 5.832,-5.30846 h 26.827 c 5.166,0 13.83,0.33117 17.997,0.83018 15.663,1.99026 22.661,10.45158 22.661,23.06058 0,15.9266 -6.665,27.3736 -22.495,31.8538 10.497,2.1568 15.996,9.9539 15.996,22.3963 0,15.43 -6.998,29.2 -23.328,35.173 -6.998,2.488 -19.495,3.815 -35.325,3.815 z"
     fill="#0f0f13"
     id="path16" />
  <path
     fill-rule="evenodd"
     clip-rule="evenodd"
     d="m 441.069,23.8908 c -2.332,2.1562 -5.498,3.3182 -9.498,3.3182 -6.165,0 -10.497,-2.3234 -10.497,-8.9591 0,-3.8165 0.999,-8.62722 3.666,-11.44766 2.666,-2.6539 5.832,-3.98181 10.164,-3.98181 6.165,0 10.664,2.15681 10.664,9.29087 0,2.8204 -1.333,8.6272 -4.499,11.7795 z M 404.244,124.263 c -2.332,0 -3.332,-0.995 -3.332,-3.152 0,-0.995 0.333,-2.489 0.5,-3.65 l 15.329,-71.3398 c 0.667,-2.8198 2,-4.6441 4.999,-4.6441 h 13.997 c 2.5,0 3.333,1.326 3.333,3.151 0,0.996 -0.333,3.1522 -0.667,4.3142 L 423.24,119.618 c -0.667,3.318 -2.166,4.645 -4.999,4.645 z"
     fill="#0f0f13"
     id="path18" />
  <path
     fill-rule="evenodd"
     clip-rule="evenodd"
     d="m 460.898,124.263 h -13.83 c -2.333,0 -3.666,-1.161 -3.666,-3.318 0,-1.161 0.334,-2.986 0.5,-3.65 L 468.063,4.64543 C 468.73,1.65908 470.063,0 473.062,0 h 13.831 c 2.498,0 3.666,0.830185 3.666,2.82044 0,0.8289 -0.334,2.48798 -0.5,3.31817 L 465.731,119.618 c -0.667,3.152 -2,4.645 -4.833,4.645 z"
     fill="#0f0f13"
     id="path20" />
  <path
     fill-rule="evenodd"
     clip-rule="evenodd"
     d="m 503.553,124.263 h -13.83 c -2.332,0 -3.666,-1.161 -3.666,-3.318 0,-1.161 0.334,-2.986 0.5,-3.65 L 510.718,4.64543 C 511.385,1.65908 512.719,0 515.717,0 h 13.831 c 2.496,0 3.665,0.830185 3.665,2.82044 0,0.8289 -0.336,2.48798 -0.497,3.31817 L 508.386,119.618 c -0.667,3.152 -1.999,4.645 -4.833,4.645 z"
     fill="#0f0f13"
     id="path22" />
</svg>
