<?xml version="1.0" encoding="UTF-8"?>
<svg id="Layer_1" xmlns="http://www.w3.org/2000/svg" version="1.1" xmlns:xlink="http://www.w3.org/1999/xlink" viewBox="0 0 32 32">
  <!-- Generator: Adobe Illustrator 29.5.1, SVG Export Plug-In . SVG Version: 2.1.0 Build 141)  -->
  <defs>
    <style>
      .st0 {
        fill: none;
      }

      .st1 {
        clip-path: url(#clippath-1);
      }

      .st2 {
        fill: #1ef3e4;
      }

      .st3 {
        fill: #153947;
      }

      .st4 {
        clip-path: url(#clippath);
      }
    </style>
    <clipPath id="clippath">
      <rect class="st0" width="32" height="32"/>
    </clipPath>
    <clipPath id="clippath-1">
      <rect class="st0" y="1.445" width="32" height="29.11"/>
    </clipPath>
  </defs>
  <g id="HERE-logo-color-XS-32px">
    <g class="st4">
      <polygon class="st2" points="4.4127 30.5546 8.8957 26.2226 -.0003 26.1606 4.4127 30.5546"/>
      <g class="st1">
        <path class="st3" d="M15.3204,16.1995c-.913-1.084-.875-1.674-.305-2.244.685-.685,1.389-.4,2.188.361l-1.883,1.883ZM24.7344,4.2365c.685-.685,1.389-.399,2.188.361l-1.883,1.883c-.913-1.084-.875-1.673-.305-2.244M30.4214,6.1575c-.856,1.274-2.339,3.347-3.899,1.788l3.956-3.956c-.361-.381-.628-.704-.837-.894-2.13-2.13-4.526-2.168-6.409-.285-1.256,1.255-1.579,2.681-1.217,4.051l-1.237-1.408c-.361.19-1.883,1.541-.741,3.557l-1.408-1.179-1.883,1.883,2.53,2.529c-1.959-1.559-4.07-1.407-5.763.285-1.807,1.807-1.693,4.013-.323,5.82l-.267-.266c-1.787-1.788-3.746-1.16-4.716-.19-.742.742-1.199,1.769-1.008,2.491l-3.899-3.899-2.074,2.074,7.665,7.664h4.108l-2.757-2.757c-1.446-1.484-1.484-2.264-.78-2.967.685-.685,1.464-.248,2.872,1.141l2.738,2.738,2.055-2.054-2.587-2.586c1.864,1.407,4.108,1.483,6.105-.495l.038-.038c1.217-1.122,1.579-2.225,1.579-2.225l-1.56-1.046c-.856,1.274-2.339,3.347-3.899,1.788l3.956-3.956,2.473,2.472,2.149-2.149-3.081-3.157c-1.446-1.446-.59-2.796.019-3.31.285.59.685,1.161,1.217,1.693,1.997,1.997,4.584,2.397,6.847.152l.038-.038c1.217-1.122,1.579-2.225,1.579-2.225l-1.579-1.046Z"/>
      </g>
    </g>
  </g>
</svg>