<svg width="600" height="187" viewBox="0 0 600 187" fill="none" xmlns="http://www.w3.org/2000/svg">
<path d="M0 37.6588C0 17.1403 16.6335 0.506836 37.1519 0.506836H148.608C169.126 0.506836 185.759 17.1403 185.759 37.6587V186.266H37.1519C16.6335 186.266 0 169.633 0 149.114V37.6588Z" fill="#46851E"/>
<path fill-rule="evenodd" clip-rule="evenodd" d="M150.354 41.2162C155.059 51.9084 150.261 64.2457 139.645 68.7659C129.032 73.2869 116.613 68.2838 111.907 57.5883C107.201 46.8927 111.996 34.5596 122.613 30.0352C133.229 25.5151 145.648 30.5181 150.354 41.2137V41.2162ZM64.3853 60.4648C68.4371 69.6745 64.3057 80.2972 55.1654 84.1906C46.0217 88.0839 35.3295 83.7746 31.2778 74.5649C27.2261 65.3551 31.3541 54.7324 40.4978 50.8391C49.638 46.9466 60.3336 51.2592 64.3853 60.4648ZM143.524 158.577C154.141 154.056 158.935 141.723 154.23 131.028L154.233 131.031C149.527 120.332 137.108 115.326 126.492 119.85C115.876 124.37 111.081 136.707 115.786 147.402C120.489 158.095 132.911 163.098 143.524 158.577ZM60.9478 106.776C63.4307 112.419 60.9012 118.931 55.2942 121.318C49.694 123.703 43.139 121.061 40.6562 115.417C38.1733 109.775 40.7061 103.266 46.3064 100.878C51.91 98.4913 58.4641 101.129 60.9478 106.776ZM107.307 120.129C122.349 113.72 129.137 96.2452 122.474 81.0955H122.477C115.813 65.9449 98.2195 58.8555 83.1791 65.2613C68.1378 71.668 61.3483 89.1422 68.0125 104.293C74.6724 119.446 92.266 126.532 107.307 120.129Z" fill="white"/>
<path fill-rule="evenodd" clip-rule="evenodd" d="M241.493 134.253C231.282 134.253 222.906 125.73 222.906 115.338V71.4347C222.906 61.0428 231.282 52.519 241.493 52.519H282.338C292.55 52.519 300.925 61.0428 300.925 71.4347V115.338C300.925 125.73 292.55 134.253 282.338 134.253H241.493ZM239.428 112.068C239.428 114.987 241.837 117.439 244.706 117.439H279.126C281.994 117.439 284.404 114.987 284.404 112.068V74.704C284.404 71.785 281.994 69.3329 279.126 69.3329H244.706C241.837 69.3329 239.428 71.785 239.428 74.704V112.068ZM302.782 134.253L332.816 93.3861L302.782 52.519H324.448L343.592 78.5572L362.735 52.519H384.516L354.482 93.3861L384.516 134.253H362.735L343.592 108.215L324.448 134.253H302.782ZM386.373 115.338C386.373 125.73 394.748 134.253 404.96 134.253H445.805C456.016 134.253 464.392 125.73 464.392 115.338V71.4347C464.392 61.0428 456.016 52.519 445.805 52.519H404.96C394.748 52.519 386.373 61.0428 386.373 71.4347V115.338ZM408.172 117.439C405.304 117.439 402.895 114.987 402.895 112.068V74.704C402.895 71.785 405.304 69.3329 408.172 69.3329H442.592C445.461 69.3329 447.87 71.785 447.87 74.704V112.068C447.87 114.987 445.461 117.439 442.592 117.439H408.172ZM473.682 52.519H496.532L522.037 111.951L547.426 52.519H570.276V134.253H553.658V81.8266L532.077 131.101H511.881L490.3 81.8266V134.253H473.682V52.519ZM599.999 52.519H581.423V134.253H599.999V52.519Z" fill="#46851E"/>
</svg>
