<svg xmlns="http://www.w3.org/2000/svg" xml:space="preserve" width="302.36" height="65.627"><path d="M445.66 492.18h-38.84c.2-.407.422-.805.641-1.215 9.355-18.606 17.535-37.785 24.383-57.422 7.109-20.406 12.828-41.422 16.937-62.887 7.789-40.754 9.239-81.008 4.254-119.508-5.469-42.175-18.68-82.425-39.754-118.554-23.199-39.754-55.808-74.332-97.476-100.23C294.262 18.972 270.469 8.042 244.68 0h200.98c25.692 0 46.504 20.816 46.504 46.504v399.172c0 25.683-20.812 46.504-46.504 46.504" style="fill:#1f64b8;fill-opacity:1;fill-rule:nonzero;stroke:none" transform="matrix(.13333 0 0 -.13333 0 65.627)"/><path d="M420.277 382.219c-3.238 19.726-8.023 39.109-14.164 57.972-5.769 17.735-12.793 35.098-20.906 51.989h-26.496c5.988-13.774 11.203-27.813 15.457-42.09 5.23-17.574 9.105-35.559 11.48-53.801 4.454-34.34 3.137-67.742-3.824-99.141-7.539-33.937-21.703-65.617-42.328-93.312-22.336-30.016-52.133-55.195-88.734-73.043-39.371-19.199-85.965-29.613-137.946-28.266a351 351 0 0 0-22.867 1.332 371 371 0 0 0-23.347 2.887 379 379 0 0 0-23.711 4.442 402 402 0 0 0-23.926 6.015c-6.38 1.813-12.688 3.813-18.965 5.918V79.488c15.129-5.972 30.477-11.11 46-15.308a409 409 0 0 1 25.43-6.055 389 389 0 0 1 25.16-4.29 374 374 0 0 1 24.726-2.554 347 347 0 0 1 24.129-.855c55.465-.012 104.578 13.144 145.485 35.972 37.808 21.082 68.004 50.067 90.05 84.071 20.219 31.195 33.497 66.472 39.754 103.883 5.77 34.429 5.618 70.765-.457 107.867" style="fill:#1f64b8;fill-opacity:1;fill-rule:nonzero;stroke:none" transform="matrix(.13333 0 0 -.13333 0 65.627)"/><path d="M355.953 408.375c-1.644 16.5-4.719 32.813-9.074 48.805-3.227 11.82-7.168 23.504-11.766 35h-29.242c2.781-8.121 5.227-16.305 7.234-24.555 3.551-14.668 5.872-29.578 6.79-44.582 1.734-28.027-1.567-54.848-9.653-79.598-8.625-26.414-22.676-50.5-41.804-70.988-20.411-21.871-46.489-39.516-77.45-51.238-32.812-12.43-70.664-18.024-112.02-14.91a308 308 0 0 0-18.05 1.902 324 324 0 0 0-18.352 3.012 330 330 0 0 0-18.52 4.121 342 342 0 0 0-18.57 5.238c-1.84.578-3.64 1.27-5.476 1.875v-38.242c9.93-3.945 20.004-7.5 30.254-10.586a366 366 0 0 1 19.965-5.387 341 341 0 0 1 19.832-4.129 326 326 0 0 1 19.586-2.89 308 308 0 0 1 19.258-1.641c44.703-2.398 85.171 5.125 119.828 20.273 32.523 14.219 59.449 34.946 80.097 60.176 19.227 23.504 32.887 50.782 40.696 80.379 7.285 27.59 9.496 57.227 6.437 87.965" style="fill:#1f64b8;fill-opacity:1;fill-rule:nonzero;stroke:none" transform="matrix(.13333 0 0 -.13333 0 65.627)"/><path d="M288.91 435.652c-.371 13.266-2.015 26.489-4.816 39.536-1.231 5.691-2.703 11.355-4.36 16.992h-32.703c.43-1.977.852-3.957 1.219-5.938 2.125-11.695 3.148-23.5 2.996-35.285-.285-21.836-4.738-42.371-12.996-60.965-8.691-19.582-21.617-37.012-38.277-51.402-17.539-15.141-39.133-26.856-64.067-34.024-26.039-7.5-55.418-9.964-86.937-6.246q-6.827.804-13.707 1.989a279 279 0 0 0-13.817 2.757 278 278 0 0 0-13.902 3.532c-2.523.715-5.023 1.558-7.543 2.34v-34c5.473-2.137 10.984-4.157 16.555-5.977a301 301 0 0 1 15.129-4.531 295 295 0 0 1 15.101-3.657A279 279 0 0 1 61.77 258a266 266 0 0 1 14.796-1.895c34.704-3.441 66.754.297 94.868 9.805 26.754 9.047 49.632 23.211 67.875 41.137 17.238 16.953 30.261 37.187 38.632 59.652 7.907 21.227 11.668 44.461 10.969 68.953M8.012 422.223a155 155 0 0 1 14.082-3.129c16.793-2.906 32.82-2.774 47.465-.043 14.3 2.656 27.172 7.781 38.121 14.914 10.64 6.941 19.418 15.758 25.933 26.051 6.047 9.543 10.082 20.382 11.942 32.164H46.496C20.824 492.18 0 471.359 0 445.676v-21.039c.316-.106.633-.227.95-.328a157 157 0 0 1 7.062-2.086" style="fill:#1f64b8;fill-opacity:1;fill-rule:nonzero;stroke:none" transform="matrix(.13333 0 0 -.13333 0 65.627)"/><path d="M217.66 492.18h-37.512c.02-4.043-.14-8.09-.519-12.129-1.539-15.785-6.242-30.371-13.727-43.313-7.789-13.441-18.574-25.101-31.914-34.433-13.832-9.676-30.355-16.801-48.93-20.731-19.175-4.047-40.378-4.664-62.761-1.191a194 194 0 0 0-9.715 1.754 209 209 0 0 0-9.785 2.269c-.934.239-1.86.532-2.797.782v-30.852c1.527-.566 3.035-1.18 4.574-1.719a236 236 0 0 1 21.684-6.426 222 222 0 0 1 10.812-2.351 212 212 0 0 1 10.711-1.774c25.43-3.527 49.32-2.132 70.727 3.34 20.66 5.285 38.797 14.309 53.769 26.258 14.352 11.457 25.731 25.559 33.676 41.59 7.594 15.351 12.047 32.484 12.985 50.855.472 9.344 0 18.731-1.278 28.071" style="fill:#1f64b8;fill-opacity:1;fill-rule:nonzero;stroke:none" transform="matrix(.13333 0 0 -.13333 0 65.627)"/><path d="M692.852 237.473c21.199 0 27.152 8.179 27.152 25.652v38.68c0 17.843-7.445 24.164-29.762 24.164h-63.687v-88.496ZM568.547 366.5h136.574c47.969 0 69.535-19.336 69.535-59.125V257.18c0-40.903-23.422-59.864-71.765-59.864h-76.336v-88.125h-58.008zm524.423-62.469h48.33l1.49-16.73c13 12.637 31.98 21.187 53.54 21.187h24.17c30.5 0 49.83-12.636 49.83-43.508V109.191h-51.68v142.782c0 11.902-8.94 14.875-18.97 14.875h-20.82c-14.51 0-27.52-2.231-34.21-4.094V109.191h-51.68zm327.11-62.472c23.43 0 31.61 7.437 31.61 28.632v28.629c0 20.453-10.42 26.407-33.84 26.407h-60.35v-83.668ZM1299.88 366.5h139.54c50.19 0 67.31-24.547 67.31-60.98v-42.395c0-31.973-21.58-57.258-56.15-57.258h-6.7l69.91-96.676h-66.56l-61.36 93.325h-28.37v-93.325h-57.62zm322.22-225.707c13.76 0 26.03 5.203 26.03 26.031v29.746h-48.34c-14.12 0-21.56-5.203-21.56-18.222v-19.707c0-13.391 9.3-17.848 20.83-17.848zm-95.18 11.527v21.567c0 35.695 21.93 52.433 57.25 52.433h63.96v23.418c0 14.137-6.32 18.227-22.69 18.227h-84.39v31.973c11.89 6.324 33.46 8.55 50.94 8.55h48.34c34.58 0 59.49-14.504 59.49-51.308V109.191h-46.12v19.704h-.73c-6.33-11.161-18.59-24.168-44.25-24.168h-29.37c-33.48 0-52.43 20.074-52.43 47.593m-541.209-11.527c13.754 0 26.029 5.203 26.029 26.031v29.746h-48.342c-14.128 0-21.562-5.203-21.562-18.222v-19.707c0-13.391 9.297-17.848 20.816-17.848zm-95.184 11.527v21.567c0 35.695 21.938 52.433 57.254 52.433h63.959v23.418c0 14.137-6.32 18.227-22.685 18.227h-84.403v31.973c11.899 6.324 33.465 8.55 50.938 8.55h48.34c34.58 0 59.5-14.504 59.5-51.308V109.191h-46.11v19.704h-.74c-6.32-11.161-18.6-24.168-44.252-24.168h-29.375c-33.473 0-52.426 20.074-52.426 47.593m1140.913-11.527c13.75 0 26.02 5.203 26.02 26.031v29.746h-48.34c-14.12 0-21.56-5.203-21.56-18.222v-19.707c0-13.391 9.3-17.848 20.82-17.848zm-95.2 11.527v21.567c0 35.695 21.95 52.433 57.27 52.433h63.95v23.418c0 14.137-6.31 18.227-22.68 18.227h-84.41v31.973c11.91 6.324 33.47 8.55 50.94 8.55h48.34c34.59 0 59.5-14.504 59.5-51.308V109.191h-46.11v19.704h-.74c-6.32-11.161-18.6-24.168-44.25-24.168h-29.37c-33.47 0-52.44 20.074-52.44 47.593m-116.52-8.55c15.24 0 27.89 3.347 35.32 5.574v112.293c-7.81 4.468-23.04 8.554-37.18 8.554h-17.48c-13.01 0-19.32-5.211-19.32-23.054v-83.66c0-17.844 10.77-19.707 21.19-19.707zm-90.36 6.695v103.742c0 35.695 23.8 54.281 57.65 54.281h25.65c17.47 0 33.09-5.211 42.38-14.504V366.5h51.68V109.191h-50.19v17.106c-11.91-13.016-27.88-21.57-48.33-21.57h-30.5c-27.51 0-48.34 13.378-48.34 45.738m409.33 153.566h47.59l2.24-17.476c13.02 12.265 32.72 20.82 55.4 20.82 6.33 0 15.61-.371 23.8-1.488v-43.875h-24.91c-18.97 0-40.53-3.344-52.44-7.805V109.191h-51.68zM869.59 139.578c-16.906 5.149-22.567 10.274-22.567 31.352V366.5H795.59V163.914c0-49.207 30.351-59.187 64.375-59.187 2.328-.004 5.719.148 9.625.503z" style="fill:#363c42;fill-opacity:1;fill-rule:nonzero;stroke:none" transform="matrix(.13333 0 0 -.13333 0 65.627)"/></svg>