<?xml version="1.0" encoding="utf-8"?>
<!-- Generator: Adobe Illustrator 26.0.3, SVG Export Plug-In . SVG Version: 6.00 Build 0)  -->
<svg version="1.1" id="Ebene_1" xmlns="http://www.w3.org/2000/svg" xmlns:xlink="http://www.w3.org/1999/xlink" x="0px" y="0px"
	 viewBox="0 0 609 122.50876" style="enable-background:new 0 0 609 122.50876;" xml:space="preserve">
<style type="text/css">
	.st0{enable-background:new    ;}
	.st1{fill:#37414E;}
	.st2{fill-rule:evenodd;clip-rule:evenodd;fill:#FBBB21;}
	.st3{fill-rule:evenodd;clip-rule:evenodd;fill:#37414E;}
</style>
<g id="Ebene_1_00000062190886197011017320000008401048136928446356_">
	<g class="st0">
		<path class="st1" d="M21.54395,102.60263c0,2.82715-1.02539,5.03125-3.07617,6.61328s-4.83398,2.37305-8.34961,2.37305
			c-3.80859,0-6.73828-0.49023-8.78906-1.47266v-3.60352c1.31836,0.55762,2.75391,0.99707,4.30664,1.31836
			c1.55273,0.32324,3.09082,0.48438,4.61426,0.48438c2.49023,0,4.36523-0.47266,5.625-1.41797
			c1.25977-0.94434,1.88965-2.25879,1.88965-3.94336c0-1.11328-0.22363-2.02539-0.66992-2.73633
			c-0.44727-0.70996-1.19434-1.36523-2.24121-1.9668c-1.04785-0.59961-2.64062-1.28125-4.7793-2.04297
			c-2.98828-1.06934-5.12354-2.33594-6.40527-3.80078s-1.92236-3.37695-1.92236-5.73535c0-2.47559,0.93018-4.44531,2.79053-5.91113
			c1.86035-1.46387,4.32129-2.19727,7.38281-2.19727c3.19336,0,6.13037,0.58691,8.81104,1.75781l-1.16455,3.25195
			c-2.65137-1.1123-5.22949-1.66992-7.73438-1.66992c-1.97754,0-3.52295,0.42578-4.63623,1.27539s-1.66992,2.02832-1.66992,3.53711
			c0,1.11328,0.20508,2.02539,0.61523,2.73535c0.41016,0.71094,1.10205,1.3623,2.07666,1.95605
			c0.97363,0.59277,2.46436,1.24902,4.47119,1.9668c3.36914,1.20117,5.68701,2.49023,6.95459,3.86719
			C20.91016,98.61826,21.54395,100.40536,21.54395,102.60263z"/>
		<path class="st1" d="M28.38184,80.54208c0-0.83594,0.20508-1.44727,0.61523-1.83496
			c0.41016-0.38867,0.92285-0.58301,1.53809-0.58301c0.58594,0,1.09131,0.19824,1.51611,0.59375s0.63721,1.00391,0.63721,1.82422
			s-0.2124,1.43164-0.63721,1.83398c-0.4248,0.40332-0.93018,0.60449-1.51611,0.60449c-0.61523,0-1.12793-0.20117-1.53809-0.60449
			C28.58691,81.97372,28.38184,81.3624,28.38184,80.54208z M32.33691,111.14951h-3.64746V87.06747h3.64746V111.14951z"/>
		<path class="st1" d="M71.89209,111.14951V95.48349c0-1.91895-0.41016-3.3584-1.23047-4.31836
			c-0.82031-0.95898-2.09473-1.43945-3.82324-1.43945c-2.27051,0-3.94775,0.65234-5.03174,1.95605s-1.62598,3.31055-1.62598,6.02051
			v13.44727H56.5332V95.48349c0-1.91895-0.41016-3.3584-1.23047-4.31836c-0.82031-0.95898-2.10205-1.43945-3.84521-1.43945
			c-2.28516,0-3.95898,0.68555-5.021,2.05469c-1.06201,1.37012-1.59277,3.61523-1.59277,6.73438v12.63477h-3.64746V87.06747h2.96631
			l0.59326,3.2959h0.17578c0.68848-1.17188,1.65918-2.08691,2.91113-2.74707c1.25293-0.6582,2.65527-0.98828,4.20801-0.98828
			c3.76465,0,6.22559,1.3623,7.38281,4.08691h0.17578c0.71777-1.25977,1.75781-2.25586,3.12012-2.98828
			s2.91504-1.09863,4.6582-1.09863c2.72461,0,4.76416,0.69922,6.11914,2.09863c1.35498,1.39844,2.03271,3.63574,2.03271,6.71191
			v15.71094H71.89209z"/>
		<path class="st1" d="M95.38525,111.58896c-1.56738,0-2.99902-0.28906-4.2959-0.86816
			c-1.2959-0.57812-2.38379-1.46777-3.2627-2.66895h-0.26367c0.17578,1.40625,0.26367,2.73926,0.26367,3.99805v9.91016H84.1792
			V87.06747h2.96631l0.50537,3.2959h0.17578c0.9375-1.31836,2.02881-2.27051,3.27393-2.85645s2.67334-0.87891,4.28467-0.87891
			c3.19336,0,5.6582,1.0918,7.39355,3.27344c1.73633,2.18359,2.604,5.24512,2.604,9.18555c0,3.95508-0.88281,7.02734-2.64795,9.2168
			C100.96973,110.49423,98.52002,111.58896,95.38525,111.58896z M94.85791,89.72568c-2.46094,0-4.24072,0.68164-5.33936,2.04395
			s-1.6626,3.53027-1.69189,6.50391v0.81348c0,3.38281,0.56396,5.80371,1.69189,7.26172
			c1.12793,1.45703,2.93701,2.18555,5.42725,2.18555c2.08008,0,3.70947-0.8418,4.88867-2.52637s1.76904-4.00586,1.76904-6.96582
			c0-3.00195-0.58984-5.30566-1.76904-6.91016C98.65527,90.52841,96.99658,89.72568,94.85791,89.72568z"/>
		<path class="st1" d="M116.52734,111.14951h-3.64746V76.96005h3.64746V111.14951z"/>
		<path class="st1" d="M125.0791,80.54208c0-0.83594,0.20508-1.44727,0.61523-1.83496
			c0.41016-0.38867,0.92285-0.58301,1.53809-0.58301c0.58594,0,1.09131,0.19824,1.51611,0.59375s0.63721,1.00391,0.63721,1.82422
			s-0.2124,1.43164-0.63721,1.83398c-0.4248,0.40332-0.93018,0.60449-1.51611,0.60449c-0.61523,0-1.12793-0.20117-1.53809-0.60449
			C125.28418,81.97372,125.0791,81.3624,125.0791,80.54208z M129.03418,111.14951h-3.64746V87.06747h3.64746V111.14951z"/>
		<path class="st1" d="M148.74805,89.90146h-6.12988v21.24805h-3.64795V89.90146h-4.30664V88.254l4.30664-1.31836v-1.34082
			c0-5.91699,2.58545-8.87695,7.75635-8.87695c1.27441,0,2.76855,0.25684,4.48242,0.76953l-0.94434,2.92188
			c-1.40625-0.45312-2.6084-0.68066-3.60352-0.68066c-1.37793,0-2.39551,0.45801-3.05469,1.37305
			c-0.65918,0.91602-0.98828,2.38379-0.98828,4.40527v1.56055h6.12988V89.90146z"/>
		<path class="st1" d="M150.44434,87.06747h3.91113l5.27344,13.73242c1.15723,3.13574,1.875,5.39844,2.15332,6.79004h0.17578
			c0.19043-0.74707,0.58984-2.02539,1.19727-3.83398c0.6084-1.80957,2.59668-7.37207,5.96582-16.68848h3.91113l-10.34863,27.42188
			c-1.02637,2.70996-2.22363,4.63281-3.59277,5.76758c-1.37012,1.13574-3.05078,1.70312-5.04297,1.70312
			c-1.11328,0-2.21191-0.125-3.2959-0.37305v-2.92285c0.80566,0.17578,1.70605,0.26367,2.70312,0.26367
			c2.50391,0,4.29102-1.40625,5.36133-4.21875l1.33984-3.42773L150.44434,87.06747z"/>
		<path class="st1" d="M187.05957,87.06747h3.91113l5.27344,13.73242c1.15723,3.13574,1.875,5.39844,2.15332,6.79004h0.17578
			c0.19043-0.74707,0.58984-2.02539,1.19727-3.83398c0.6084-1.80957,2.59668-7.37207,5.96582-16.68848h3.91113l-10.34863,27.42188
			c-1.02637,2.70996-2.22363,4.63281-3.59277,5.76758c-1.37012,1.13574-3.05078,1.70312-5.04297,1.70312
			c-1.11328,0-2.21191-0.125-3.2959-0.37305v-2.92285c0.80566,0.17578,1.70605,0.26367,2.70312,0.26367
			c2.50391,0,4.29102-1.40625,5.36133-4.21875l1.33984-3.42773L187.05957,87.06747z"/>
		<path class="st1" d="M235.46973,99.08701c0,3.92578-0.98926,6.99023-2.96582,9.19531
			c-1.97852,2.2041-4.70996,3.30664-8.19629,3.30664c-2.15332,0-4.06543-0.50586-5.73535-1.51562
			c-1.66992-1.01172-2.95898-2.46094-3.86719-4.35156c-0.9082-1.88867-1.36133-4.10059-1.36133-6.63477
			c0-3.92578,0.98047-6.98438,2.94336-9.17383c1.96289-2.19043,4.6875-3.28516,8.17383-3.28516
			c3.36914,0,6.04688,1.12109,8.03125,3.36133C234.47754,92.23154,235.46973,95.26279,235.46973,99.08701z M217.12305,99.08701
			c0,3.07617,0.61523,5.41992,1.8457,7.03125s3.03906,2.41602,5.42676,2.41602s4.2002-0.80176,5.43848-2.40527
			c1.2373-1.60449,1.85645-3.95117,1.85645-7.04199c0-3.06152-0.61914-5.3877-1.85645-6.97656
			c-1.23828-1.58984-3.06543-2.38477-5.48242-2.38477c-2.3877,0-4.18945,0.78418-5.40527,2.35156
			S217.12305,95.98154,217.12305,99.08701z"/>
		<path class="st1" d="M246.41602,87.06747v15.62305c0,1.96289,0.44629,3.42773,1.33984,4.39453s2.29297,1.44922,4.19727,1.44922
			c2.51953,0,4.36133-0.6875,5.52637-2.06445c1.16406-1.37695,1.74707-3.62598,1.74707-6.74609V87.06747h3.64648v24.08203h-3.00977
			l-0.52734-3.23047h-0.19727c-0.74805,1.1875-1.78418,2.0957-3.10938,2.72461c-1.32617,0.62988-2.83887,0.94531-4.53711,0.94531
			c-2.93066,0-5.12402-0.69531-6.58105-2.08789c-1.45801-1.39062-2.18652-3.61719-2.18652-6.67969V87.06747H246.41602z"/>
		<path class="st1" d="M282.71973,86.62802c1.06934,0,2.02832,0.08789,2.87891,0.26367l-0.50586,3.38379
			c-0.99609-0.21973-1.875-0.3291-2.63672-0.3291c-1.94824,0-3.61426,0.79102-4.99902,2.37305
			c-1.38379,1.58203-2.07617,3.55176-2.07617,5.91016v12.91992h-3.64746V87.06747h3.00977l0.41797,4.46094h0.17578
			c0.89355-1.56738,1.96973-2.77637,3.23047-3.62598C279.82617,87.05283,281.21094,86.62802,282.71973,86.62802z"/>
		<path class="st1" d="M320.43359,107.91904h-0.19824c-1.68457,2.44727-4.2041,3.66992-7.55859,3.66992
			c-3.14941,0-5.59863-1.07617-7.34961-3.23047c-1.75-2.15234-2.625-5.21387-2.625-9.18359s0.87891-7.05371,2.63672-9.25098
			s4.20312-3.2959,7.33789-3.2959c3.2666,0,5.77148,1.18652,7.51562,3.55957h0.28516l-0.1543-1.73535l-0.08789-1.69238v-9.7998
			h3.64844v34.18945h-2.9668L320.43359,107.91904z M313.13867,108.53427c2.49023,0,4.2959-0.67676,5.41602-2.03223
			c1.12109-1.35449,1.68066-3.54102,1.68066-6.55859V99.1749c0-3.41309-0.56738-5.84863-1.70215-7.30664
			c-1.13574-1.45703-2.94824-2.18555-5.43848-2.18555c-2.13867,0-3.77539,0.83105-4.91113,2.49316
			c-1.13477,1.66309-1.70215,4.01074-1.70215,7.04199c0,3.07617,0.56348,5.39844,1.69141,6.96582
			S310.95605,108.53427,313.13867,108.53427z"/>
		<path class="st1" d="M347.55176,111.14951l-0.72559-3.42773h-0.17578c-1.20117,1.50879-2.39844,2.53027-3.5918,3.06543
			c-1.19434,0.53418-2.68457,0.80176-4.47168,0.80176c-2.3877,0-4.25879-0.61523-5.61426-1.8457
			c-1.35449-1.23047-2.03223-2.98047-2.03223-5.25195c0-4.8623,3.88965-7.41113,11.66699-7.64648l4.08789-0.13086v-1.49414
			c0-1.89062-0.40723-3.28516-1.21973-4.18652c-0.81348-0.90039-2.11328-1.35059-3.90039-1.35059
			c-2.00684,0-4.27734,0.61523-6.81152,1.8457l-1.12109-2.79102c1.1875-0.64453,2.4873-1.14941,3.90039-1.51562
			c1.41406-0.36621,2.83105-0.5498,4.25195-0.5498c2.87109,0,4.99902,0.6377,6.38281,1.91113
			c1.38477,1.27539,2.07617,3.31836,2.07617,6.13086v16.43555H347.55176z M339.3125,108.57919
			c2.26953,0,4.05371-0.62305,5.34961-1.86816c1.29688-1.24512,1.94531-2.98828,1.94531-5.22949v-2.17578l-3.64844,0.1543
			c-2.90039,0.10254-4.99121,0.55273-6.27246,1.35156c-1.28223,0.79785-1.92285,2.04004-1.92285,3.72461
			c0,1.31836,0.39941,2.32129,1.19727,3.00977C336.75977,108.23447,337.87598,108.57919,339.3125,108.57919z"/>
		<path class="st1" d="M358.58691,80.54208c0-0.83594,0.20508-1.44727,0.61523-1.83496
			c0.41016-0.38867,0.92285-0.58301,1.53809-0.58301c0.58594,0,1.09082,0.19824,1.51562,0.59375s0.6377,1.00391,0.6377,1.82422
			s-0.21289,1.43164-0.6377,1.83398c-0.4248,0.40332-0.92969,0.60449-1.51562,0.60449c-0.61523,0-1.12793-0.20117-1.53809-0.60449
			C358.79199,81.97372,358.58691,81.3624,358.58691,80.54208z M362.54199,111.14951h-3.64746V87.06747h3.64746V111.14951z"/>
		<path class="st1" d="M375.04883,111.14951h-3.64746V76.96005h3.64746V111.14951z"/>
		<path class="st1" d="M380.08496,87.06747h3.91113l5.27344,13.73242c1.15723,3.13574,1.875,5.39844,2.15332,6.79004h0.17578
			c0.19043-0.74707,0.58984-2.02539,1.19727-3.83398c0.6084-1.80957,2.59668-7.37207,5.96582-16.68848h3.91113l-10.34863,27.42188
			c-1.02637,2.70996-2.22363,4.63281-3.59277,5.76758c-1.37012,1.13574-3.05078,1.70312-5.04297,1.70312
			c-1.11328,0-2.21191-0.125-3.2959-0.37305v-2.92285c0.80566,0.17578,1.70605,0.26367,2.70312,0.26367
			c2.50391,0,4.29102-1.40625,5.36133-4.21875l1.33984-3.42773L380.08496,87.06747z"/>
		<path class="st1" d="M431.72949,86.67197c3.16406,0,5.62109,1.08008,7.37207,3.24121c1.75,2.16016,2.625,5.21875,2.625,9.17383
			s-0.88184,7.02734-2.64746,9.2168c-1.76465,2.19043-4.21484,3.28516-7.34961,3.28516c-1.56738,0-2.99902-0.28906-4.2959-0.86816
			c-1.2959-0.57812-2.38379-1.46777-3.2627-2.66895h-0.26367l-0.76855,3.09766h-2.61523V76.96005h3.64746v8.30566
			c0,1.86035-0.05859,3.53027-0.17578,5.00977h0.17578C425.87012,87.87314,428.38965,86.67197,431.72949,86.67197z
			 M431.20215,89.72568c-2.49023,0-4.28418,0.71484-5.38379,2.14258c-1.09766,1.42871-1.64746,3.83398-1.64746,7.21875
			c0,3.38281,0.56348,5.80371,1.69238,7.26172c1.12695,1.45703,2.93652,2.18555,5.42676,2.18555
			c2.24121,0,3.91113-0.81641,5.00977-2.44922c1.09863-1.63379,1.64746-3.98047,1.64746-7.04297
			c0-3.13379-0.54883-5.4707-1.64746-7.00879S433.50195,89.72568,431.20215,89.72568z"/>
		<path class="st1" d="M452.65234,87.06747v15.62305c0,1.96289,0.44629,3.42773,1.33984,4.39453s2.29297,1.44922,4.19727,1.44922
			c2.51953,0,4.36133-0.6875,5.52637-2.06445c1.16406-1.37695,1.74707-3.62598,1.74707-6.74609V87.06747h3.64648v24.08203h-3.00977
			l-0.52734-3.23047H465.375c-0.74805,1.1875-1.78418,2.0957-3.10938,2.72461c-1.32617,0.62988-2.83887,0.94531-4.53711,0.94531
			c-2.93066,0-5.12402-0.69531-6.58105-2.08789c-1.45801-1.39062-2.18652-3.61719-2.18652-6.67969V87.06747H452.65234z"/>
		<path class="st1" d="M493.50391,104.57919c0,2.24219-0.83594,3.9707-2.50586,5.18555
			c-1.66992,1.2168-4.01367,1.82422-7.03125,1.82422c-3.19336,0-5.68359-0.50586-7.4707-1.51562v-3.38477
			c1.15723,0.58691,2.39941,1.04785,3.72461,1.38477c1.32617,0.33691,2.60352,0.50586,3.83398,0.50586
			c1.9043,0,3.36914-0.30469,4.39453-0.91211c1.02539-0.6084,1.53906-1.53418,1.53906-2.7793
			c0-0.9375-0.40723-1.74023-1.21973-2.40625c-0.81348-0.66699-2.39941-1.4541-4.75684-2.3623
			c-2.24219-0.83496-3.83496-1.56348-4.7793-2.18652c-0.94531-0.62207-1.64844-1.3291-2.10938-2.12012
			c-0.46191-0.79102-0.69238-1.73535-0.69238-2.83496c0-1.96191,0.79785-3.51172,2.39551-4.64648
			c1.5957-1.13574,3.78613-1.70312,6.56934-1.70312c2.59277,0,5.12695,0.52734,7.60254,1.58203l-1.29688,2.9668
			c-2.41602-0.99609-4.60645-1.49414-6.56934-1.49414c-1.72852,0-3.03223,0.27051-3.91113,0.8125s-1.31836,1.28906-1.31836,2.24121
			c0,0.64453,0.16504,1.19434,0.49414,1.64746c0.33008,0.45508,0.86035,0.88672,1.59375,1.29688
			c0.73145,0.41016,2.1377,1.00391,4.21875,1.7793c2.85547,1.04102,4.78613,2.08789,5.78906,3.14258
			C493.00195,101.65732,493.50391,102.98349,493.50391,104.57919z"/>
		<path class="st1" d="M500.25293,80.54208c0-0.83594,0.20508-1.44727,0.61523-1.83496
			c0.41016-0.38867,0.92285-0.58301,1.53809-0.58301c0.58594,0,1.09082,0.19824,1.51562,0.59375s0.6377,1.00391,0.6377,1.82422
			s-0.21289,1.43164-0.6377,1.83398c-0.4248,0.40332-0.92969,0.60449-1.51562,0.60449c-0.61523,0-1.12793-0.20117-1.53809-0.60449
			C500.45801,81.97372,500.25293,81.3624,500.25293,80.54208z M504.20801,111.14951h-3.64746V87.06747h3.64746V111.14951z"/>
		<path class="st1" d="M529.54785,111.14951V95.57138c0-1.96289-0.44727-3.42773-1.34082-4.39453s-2.29199-1.45117-4.19629-1.45117
			c-2.51953,0-4.36523,0.68164-5.53711,2.04395s-1.75781,3.61133-1.75781,6.74512v12.63477h-3.64746V87.06747h2.9668l0.59277,3.2959
			h0.17578c0.74707-1.18652,1.79395-2.10547,3.1416-2.75781c1.34766-0.65137,2.84961-0.97754,4.50488-0.97754
			c2.90039,0,5.08301,0.69922,6.54785,2.09863c1.46484,1.39844,2.19727,3.63574,2.19727,6.71191v15.71094H529.54785z"/>
		<path class="st1" d="M551.98633,111.58896c-3.56055,0-6.36914-1.08398-8.42676-3.25195
			c-2.05859-2.16797-3.08691-5.17773-3.08691-9.03125c0-3.88086,0.95508-6.96484,2.86719-9.25
			c1.91113-2.28516,4.47852-3.42773,7.70117-3.42773c3.01758,0,5.40527,0.99219,7.16309,2.97754
			c1.75781,1.98438,2.63672,4.60254,2.63672,7.85449v2.30762h-16.58887c0.07227,2.82715,0.78711,4.97363,2.1416,6.43848
			c1.35547,1.46484,3.2627,2.19727,5.72363,2.19727c2.59375,0,5.15625-0.54199,7.69141-1.62695v3.25195
			c-1.29004,0.55762-2.50879,0.95605-3.65918,1.19824C555,111.46786,553.61133,111.58896,551.98633,111.58896z M550.99707,89.68271
			c-1.93359,0-3.47559,0.62988-4.625,1.88867c-1.15039,1.26074-1.82812,3.00391-2.03223,5.23047h12.58984
			c0-2.2998-0.5127-4.06152-1.53809-5.28516C554.36621,90.29404,552.90137,89.68271,550.99707,89.68271z"/>
		<path class="st1" d="M583.71875,104.57919c0,2.24219-0.83594,3.9707-2.50586,5.18555
			c-1.66992,1.2168-4.01367,1.82422-7.03125,1.82422c-3.19336,0-5.68359-0.50586-7.4707-1.51562v-3.38477
			c1.15723,0.58691,2.39941,1.04785,3.72461,1.38477c1.32617,0.33691,2.60352,0.50586,3.83398,0.50586
			c1.9043,0,3.36914-0.30469,4.39453-0.91211c1.02539-0.6084,1.53906-1.53418,1.53906-2.7793
			c0-0.9375-0.40723-1.74023-1.21973-2.40625c-0.81348-0.66699-2.39941-1.4541-4.75684-2.3623
			c-2.24219-0.83496-3.83496-1.56348-4.7793-2.18652c-0.94531-0.62207-1.64844-1.3291-2.10938-2.12012
			c-0.46191-0.79102-0.69238-1.73535-0.69238-2.83496c0-1.96191,0.79785-3.51172,2.39551-4.64648
			c1.5957-1.13574,3.78613-1.70312,6.56934-1.70312c2.59277,0,5.12695,0.52734,7.60254,1.58203l-1.29688,2.9668
			c-2.41602-0.99609-4.60645-1.49414-6.56934-1.49414c-1.72852,0-3.03223,0.27051-3.91113,0.8125s-1.31836,1.28906-1.31836,2.24121
			c0,0.64453,0.16504,1.19434,0.49414,1.64746c0.33008,0.45508,0.86035,0.88672,1.59375,1.29688
			c0.73145,0.41016,2.1377,1.00391,4.21875,1.7793c2.85547,1.04102,4.78613,2.08789,5.78906,3.14258
			C583.2168,101.65732,583.71875,102.98349,583.71875,104.57919z"/>
		<path class="st1" d="M606.31152,104.57919c0,2.24219-0.83594,3.9707-2.50586,5.18555
			c-1.66992,1.2168-4.01367,1.82422-7.03125,1.82422c-3.19336,0-5.68359-0.50586-7.4707-1.51562v-3.38477
			c1.15723,0.58691,2.39941,1.04785,3.72461,1.38477c1.32617,0.33691,2.60352,0.50586,3.83398,0.50586
			c1.9043,0,3.36914-0.30469,4.39453-0.91211c1.02539-0.6084,1.53906-1.53418,1.53906-2.7793
			c0-0.9375-0.40723-1.74023-1.21973-2.40625c-0.81348-0.66699-2.39941-1.4541-4.75684-2.3623
			c-2.24219-0.83496-3.83496-1.56348-4.7793-2.18652c-0.94531-0.62207-1.64844-1.3291-2.10938-2.12012
			c-0.46191-0.79102-0.69238-1.73535-0.69238-2.83496c0-1.96191,0.79785-3.51172,2.39551-4.64648
			c1.5957-1.13574,3.78613-1.70312,6.56934-1.70312c2.59277,0,5.12695,0.52734,7.60254,1.58203l-1.29688,2.9668
			c-2.41602-0.99609-4.60645-1.49414-6.56934-1.49414c-1.72852,0-3.03223,0.27051-3.91113,0.8125s-1.31836,1.28906-1.31836,2.24121
			c0,0.64453,0.16504,1.19434,0.49414,1.64746c0.33008,0.45508,0.86035,0.88672,1.59375,1.29688
			c0.73145,0.41016,2.1377,1.00391,4.21875,1.7793c2.85547,1.04102,4.78613,2.08789,5.78906,3.14258
			C605.80957,101.65732,606.31152,102.98349,606.31152,104.57919z"/>
	</g>
	<g>
		<path class="st2" d="M376.39999,64.79999c-0.60001-0.70001-0.89999-1.20001-1-1.60001l-24.20001-55.5
			c-1.10001-2.39999,0-5.3,2.5-6.39999c2.39999-1.10001,5.29999,0,6.39999,2.5L380.69998,51l20.60001-47.29999
			c1.09998-2.39999,3.90002-3.60001,6.40002-2.5c2.40002,1.10001,3.59998,3.89999,2.5,6.39999L386,63.09998
			c-0.10001,0.29999-0.39999,0.89999-1.10001,1.70001c-0.70001,0.79999-2.20001,1.79999-4.20001,1.79999
			C378.70001,66.59998,377.10001,65.59998,376.39999,64.79999"/>
		<path class="st2" d="M449.29999,65.59998c-2.70001,0-4.79999-2.20001-4.79999-4.79999C444.5,58.09998,446.70001,56,449.29999,56
			h37.5c3.40002,0,6.40002-2.39999,7.09998-5.79999c0.09998-0.60001,0.20001-1.10001,0.20001-1.60001
			c0-3.39999-2.40002-6.39999-5.79999-7.20001l-29-6.20001c-8-1.70001-13.5-8.79999-13.5-16.60001
			c0-1.20001,0.09998-2.39999,0.40002-3.5c1.70001-8,8.70001-13.5,16.59998-13.5H463h32.70001
			c2.70001,0,4.79999,2.20001,4.79999,4.79999c0,2.70001-2.20001,4.79999-4.79999,4.79999h-32.90002
			c-3.40002,0-6.5,2.39999-7.20001,5.79999c-0.09998,0.5-0.20001,1-0.20001,1.5c0,3.39999,2.40002,6.5,5.79999,7.20001l29,6.20001
			c8,1.70001,13.5,8.70001,13.5,16.60001c0,1.20001-0.09998,2.39999-0.40002,3.60001c-1.70001,8-8.70001,13.39999-16.5,13.5
			H449.29999z"/>
		<path class="st2" d="M421.90002,61.79999V5c0-2.7,2.20001-4.8,4.79999-4.8c2.70001,0,4.79999,2.2,4.79999,4.8v56.79999
			c0,2.70001-2.20001,4.79999-4.79999,4.79999C424,66.69998,421.90002,64.49997,421.90002,61.79999"/>
		<path class="st2" d="M517.09998,61.79999V5c0-2.7,2.20001-4.8,4.79999-4.8c2.70001,0,4.79999,2.2,4.79999,4.8v56.79999
			c0,2.70001-2.20001,4.79999-4.79999,4.79999C519.20001,66.69998,517.09998,64.49997,517.09998,61.79999"/>
		<path class="st2" d="M548.79999,33.49997c0,12.89999,11.09998,23.70001,25.29999,23.70001s25.29999-10.79999,25.29999-23.70001
			c0-12.89999-11.09998-23.70001-25.29999-23.70001C559.90002,9.79999,548.79999,20.59998,548.79999,33.49997 M539.09998,33.49997
			c0-18.60001,15.79999-33.3,35-33.39999C593.19995,0.09998,609,14.79999,609,33.49997
			c0,18.60001-15.79999,33.29999-34.90002,33.39999C554.90002,66.79999,539.09998,52.09998,539.09998,33.49997"/>
		<path class="st3" d="M0,60.79999C0,58.09998,2.2,56,4.8,56h37.5C45.7,56,48.7,53.60001,49.40001,50.20001
			c0.10001-0.5,0.2-1.10001,0.2-1.60001c0-3.39999-2.39999-6.39999-5.8-7.20001l-29-6.20001c-8-1.70001-13.5-8.70001-13.5-16.60001
			c0-1.20001,0.1-2.39999,0.4-3.5c1.7-8,8.7-13.5,16.6-13.5h0.2h32.7c2.7,0,4.8,2.20001,4.8,4.79999
			c0,2.70001-2.2,4.79999-4.8,4.79999H18.29999c-3.39999,0-6.4,2.39999-7.2,5.79999c-0.1,0.5-0.2,1-0.2,1.5
			c0,3.39999,2.39999,6.5,5.8,7.20001l29,6.20001c8,1.70001,13.5,8.70001,13.5,16.60001c0,1.20001-0.10001,2.39999-0.39999,3.60001
			c-1.7,7.89999-8.7,13.39999-16.5,13.5H4.8C2.1,65.59998,0,63.39996,0,60.79999"/>
		<path class="st3" d="M101,66.79999c-18.60001,0-33.8-14.89999-33.8-33.39999S82.39999,0.09999,101,0
			c8.89999,0,17.10001,3.39999,23.10001,9.10001c2,1.79999,2.10001,4.89999,0.2,6.79999c-1.8,1.89999-4.89999,2.10001-6.8,0.20001
			c-4.3-4-10.10001-6.5-16.60001-6.5c-13.39999,0-24.10001,10.70001-24.10001,23.70001s10.7,23.70001,24.10001,23.70001
			c6.39999,0,12.3-2.5,16.60001-6.5c1.89999-1.79999,5-1.70001,6.8,0.20001c1.8,1.89999,1.7,5-0.2,6.79999
			C118.2,63.39996,110,66.79999,101,66.79999L101,66.79999z"/>
		<path class="st3" d="M218.10001,66.29999c-2.70001,0-4.79999-2.20001-4.79999-4.79999c0,0,0-13.29999,0-13.79999
			c0.39999-7.5,5.79999-14.10001,13.5-15.79999l34-6.20001c3.39999-0.79999,5.70001-3.79999,5.70001-7.20001
			c0-0.5-0.10001-1-0.20001-1.5c-0.70001-3.39999-3.70001-5.70001-7-5.79999H228c-2.79999,0-5,2.20001-5,5v6.89999
			c0,2.70001-2.20001,4.79999-4.79999,4.79999c-2.70001,0-4.79999-2.20001-4.79999-4.79999v-6.89999
			c0-8.10001,6.60001-14.7,14.70001-14.7h31.10001C267.10004,1.50002,274.10004,7,275.80005,15
			c0.29999,1.20001,0.39999,2.39999,0.39999,3.5c0,7.89999-5.5,14.89999-13.5,16.60001l-34,6.20001
			c-3.29999,0.70001-5.60001,3.60001-5.70001,6.79999v13.29999C222.89999,64.09998,220.70001,66.29999,218.10001,66.29999
			L218.10001,66.29999z"/>
		<path class="st3" d="M286.5,50.69998v-34.5c0-8.10001,6.60001-14.7,14.70001-14.7H338c2.70001,0,4.79999,2.2,4.79999,4.8
			c0,2.70001-2.20001,4.79999-4.79999,4.79999h-36.79999c-2.79999,0-5,2.20001-5,5v34.5c0,2.79999,2.20001,5,5,5h38.39999
			c2.70001,0,4.79999,2.20001,4.79999,4.79999c0,2.70001-2.20001,4.79999-4.79999,4.79999h-38.39999
			C293,65.39996,286.5,58.79999,286.5,50.69998"/>
		<path class="st3" d="M142.60001,33.49997c0,12.89999,11.10001,23.70001,25.29999,23.70001
			c14.20001,0,25.29999-10.79999,25.29999-23.70001c0-12.89999-11.10001-23.70001-25.29999-23.70001
			C153.70001,9.79999,142.60001,20.59998,142.60001,33.49997 M132.89999,33.49997c0-18.60001,15.79999-33.3,34.89999-33.39999
			c19.10001,0,34.89999,14.70001,34.89999,33.39999c0,18.60001-15.79999,33.29999-34.89999,33.39999
			C148.79999,66.79999,133,52.09998,132.89999,33.49997"/>
		<path class="st3" d="M307.70001,38.19998c-2.70001,0-4.79999-2.20001-4.79999-4.79999c0-2.70001,2.20001-4.79999,4.79999-4.79999
			h26.70001c2.70001,0,4.79999,2.20001,4.79999,4.79999c0,2.70001-2.20001,4.79999-4.79999,4.79999H307.70001z"/>
	</g>
</g>
<g id="Ebene_2_00000156573082412808708860000017708891912191750074_">
</g>
</svg>
