<?xml version="1.0" encoding="UTF-8"?> <svg xmlns="http://www.w3.org/2000/svg" xmlns:xlink="http://www.w3.org/1999/xlink" id="a" viewBox="0 0 379.4 108.6"><defs><style>.c{fill:url(#b);fill-rule:evenodd;}.d{fill:#fff;}.e{fill:#112857;}</style><linearGradient id="b" x1="0" y1="56.7" x2="108.6" y2="56.7" gradientTransform="translate(0 111) scale(1 -1)" gradientUnits="userSpaceOnUse"><stop offset="0" stop-color="#00d2f6"></stop><stop offset="1" stop-color="#1d96ff"></stop></linearGradient></defs><path d="M32.5,0h43.6c11.3,0,15.4,1.2,19.5,3.4,4.1,2.2,7.4,5.4,9.6,9.6,2.2,4.1,3.4,8.2,3.4,19.5v43.6c0,11.3-1.2,15.4-3.4,19.5s-5.4,7.4-9.6,9.6c-4.1,2.2-8.2,3.4-19.5,3.4H32.5c-11.3,0-15.4-1.2-19.5-3.4s-7.4-5.4-9.6-9.6c-2.2-4.1-3.4-8.2-3.4-19.5V32.5c0-11.3,1.2-15.4,3.4-19.5,2.2-4.1,5.4-7.4,9.6-9.6C17.1,1.2,21.2,0,32.5,0Z" style="fill:url(#b); fill-rule:evenodd;"></path><path d="M90.8,60.9c0-8.6-6.6-15.8-15-16.7-1.2-4.3-3.8-8.3-7.3-11.2-4-3.3-9.1-5.2-14.4-5.2s-10.3,1.8-14.4,5.2c-3.5,2.9-6,6.8-7.3,11.2-8.4,.9-15,8-15,16.7h0c0,.8,.1,6.7,4.5,11.3,3.4,3.5,8.2,5.2,14.5,5.2s11.9-1,17.6-3.1c1.8,.6,3.6,1.2,5.4,1.6,4,1,8.1,1.5,12.1,1.5,6.3,0,11.1-1.8,14.5-5.2,4.7-4.6,4.8-10.4,4.8-11.3h0Zm-4.5,0h0s.1,4.7-3.3,8.1c-2.5,2.5-6.2,3.8-11.1,3.8-8.4,0-15.1-2.3-19.3-4.2-4-1.8-6.5-3.6-7.1-4.1-.1,0-.1-.1-.1-.2v-9.8c0-.2,.1-.3,.3-.4l8.6-4.4c.1-.1,.3-.1,.4,0l8.6,4.4c.2,.1,.3,.2,.3,.4v9.6c0,.1-.1,.3-.1,.3-.4,.3-1.9,1.4-4.2,2.7,1.9,.6,4.1,1.1,6.4,1.4,.5-.4,.8-.6,.8-.6h0c.8-.7,1.7-2,1.7-3.8v-9.6c0-1.9-1.1-3.6-2.7-4.5l-8.6-4.4c-1.4-.7-3.2-.7-4.6,0l-8.6,4.4c-1.7,.9-2.7,2.6-2.7,4.5v9.6c0,1.7,.9,3.1,1.7,3.8h0c.1,.1,2,1.6,5.5,3.5-3.7,.9-7.4,1.3-11.2,1.3-4.9,0-8.7-1.3-11.1-3.8-3.3-3.4-3.3-8-3.3-8.1h0v-.1c0-6.7,5.5-12.2,12.2-12.2h1.9l.4-1.9c.8-4,3-7.7,6.1-10.3,3.2-2.7,7.3-4.1,11.4-4.1s8.2,1.5,11.4,4.1,5.3,6.3,6.1,10.3l.4,1.9h1.9c6.4,.2,11.9,5.6,11.9,12.4h0Z" style="fill:#fff;"></path><path d="M130.8,60.8c.5-.4,1.2-.4,1.6,.1,1.2,1.3,3.7,3.5,7.5,3.5,2.8,0,5.9-1.2,5.9-3.3,0-2.4-2-3.5-6.2-4.3-5.8-1.2-9.9-3.5-9.9-8.6,0-3.9,3.9-7.8,10-7.8,4.5,0,7.7,2.1,9.1,3.3,.5,.4,.6,1.2,.1,1.7l-1.6,1.7c-.4,.4-1.1,.5-1.6,.1-1.1-.9-3.2-2.3-6-2.3-3.5,0-5.2,1.7-5.2,3.5,0,2.1,2.1,3.2,6.6,4.1,5.2,1.1,9.6,3.1,9.6,8.6,0,5.2-5.5,7.9-10.8,7.9-5.7,0-9.4-3.2-10.9-4.8-.4-.5-.4-1.2,.1-1.6l1.7-1.8Z" style="fill:#112857;"></path><path d="M181.4,54.7c0-8.8-5.6-14.5-13.2-14.5-8.2,0-13.6,6.3-13.6,14.3s5.9,14.3,14.2,14.3c5.4,0,9-3,10.5-4.5,.4-.4,.5-1.2,0-1.6l-1.5-1.5c-.4-.5-1.2-.5-1.7,0-1.2,1.2-3.7,3.1-7.4,3.1-5.1,0-9-3.8-9.3-7.9h21.9c.1-.7,.1-1.2,.1-1.7Zm-21.9-2.5c.4-2.8,2.8-7.3,8.6-7.3,5.5,0,8.2,4.3,8.4,7.3h-17Z" style="fill:#112857;"></path><path d="M210.2,50.7v16.3c0,.6-.5,1.2-1.2,1.2h-2.5c-.6,0-1.2-.5-1.2-1.2v-15.5c0-4.6-2.9-6.6-6.5-6.6-4.4,0-6.8,4.6-6.8,4.6v17.5c0,.6-.5,1.2-1.2,1.2h-2.6c-.6,0-1.2-.5-1.2-1.2v-24.8c0-.6,.5-1.2,1.2-1.2h2.3c.6,0,1.2,.5,1.2,1.2v2.7s2.5-4.5,8.3-4.5c5.4-.1,10.2,3.6,10.2,10.3Z" style="fill:#112857;"></path><path d="M241.5,27.4h-2.6c-.6,0-1.2,.5-1.2,1.2v15.8s-2.8-4.1-8.8-4.1c-7.3,0-13.2,6.3-13.2,14.3s5.8,14.3,13.2,14.3c6.5,0,9.2-4.6,9.2-4.6v2.8c0,.6,.5,1.2,1.2,1.2h2.2c.6,0,1.2-.5,1.2-1.2V28.5c0-.6-.5-1.1-1.2-1.1Zm-3.7,32.1s-2.6,4.7-8,4.7-9-4.3-9-9.7,3.6-9.7,9-9.7,8,4.7,8,4.7v10Z" style="fill:#112857;"></path><path d="M273.2,64.4c-1.4,1.4-4.6,4.1-9.5,4.3-8,.5-14.7-6.1-14.8-14.1-.1-8,5.9-14.4,14-14.4,5,0,8.4,2.5,9.9,4,.5,.5,.5,1.3,0,1.7l-1.6,1.5c-.4,.4-1.1,.4-1.5,0-1.1-1-3.4-2.6-6.7-2.6-5.5,0-9,4.3-9,9.7s3.6,9.7,9,9.7c3.6,0,6-1.8,7.2-3,.5-.5,1.2-.5,1.7,0l1.5,1.6c.3,.5,.3,1.2-.2,1.6Z" style="fill:#112857;"></path><path d="M280.1,27.4h2.6c.6,0,1.2,.5,1.2,1.2v38.4c0,.6-.5,1.2-1.2,1.2h-2.6c-.6,0-1.2-.5-1.2-1.2V28.5c0-.6,.5-1.1,1.2-1.1Z" style="fill:#112857;"></path><path d="M304,40.3c-8,0-14,6.3-14,14.3s6,14.3,14,14.3,14-6.3,14-14.3-6-14.3-14-14.3Zm0,23.9c-5.5,0-9-4.3-9-9.7s3.6-9.7,9-9.7,9,4.3,9,9.7c.1,5.4-3.5,9.7-9,9.7Z" style="fill:#112857;"></path><path d="M323.6,58.4v-16.3c0-.6,.5-1.2,1.2-1.2h2.6c.6,0,1.2,.5,1.2,1.2v15.5c0,4.6,2.9,6.6,6.5,6.6,4.6,0,6.8-4.5,6.8-4.5v-17.6c0-.6,.5-1.2,1.2-1.2h2.6c.6,0,1.2,.5,1.2,1.2v24.8c0,.6-.5,1.2-1.2,1.2h-2.3c-.6,0-1.2-.5-1.2-1.2v-3s-2.5,4.9-8.3,4.9c-5.4,0-10.3-3.7-10.3-10.4Z" style="fill:#112857;"></path><path d="M378.2,27.4h-2.6c-.6,0-1.2,.5-1.2,1.2v15.8s-2.8-4.1-8.8-4.1c-7.3,0-13.2,6.3-13.2,14.3s5.8,14.3,13.2,14.3c6.5,0,9.2-4.6,9.2-4.6v2.8c0,.6,.5,1.2,1.2,1.2h2.2c.6,0,1.2-.5,1.2-1.2V28.5c0-.6-.5-1.1-1.2-1.1Zm-3.8,32.1s-2.6,4.7-8,4.7-9-4.3-9-9.7,3.6-9.7,9-9.7,8,4.7,8,4.7v10Z" style="fill:#112857;"></path></svg> 