<svg width="1986" height="616" viewBox="0 0 1986 616" fill="none" xmlns="http://www.w3.org/2000/svg">
<path d="M1711.75 249.797C1711.74 248.668 1711.29 247.587 1710.49 246.789C1709.7 245.99 1708.62 245.539 1707.49 245.531H1694.41C1693.29 245.531 1692.2 245.981 1691.4 246.781C1690.61 247.581 1690.16 248.666 1690.16 249.797V249.797V308.827C1690.28 315.372 1689.74 321.911 1688.54 328.346C1687.42 332.538 1685.35 336.419 1682.51 339.695C1679.59 343.574 1675.8 346.713 1671.45 348.859C1667.1 351.004 1662.31 352.096 1657.47 352.047C1650.57 351.849 1643.9 349.512 1638.37 345.357C1632.85 341.203 1628.75 335.435 1626.64 328.848C1625.33 322.25 1624.76 315.525 1624.94 308.8V249.797C1624.94 248.713 1624.53 247.668 1623.8 246.875C1623.06 246.083 1622.04 245.602 1620.96 245.531H1607.86C1606.73 245.531 1605.65 245.981 1604.85 246.781C1604.05 247.581 1603.6 248.666 1603.6 249.797C1603.59 249.909 1603.59 250.021 1603.6 250.132L1603.83 308.688L1603.6 315.073C1603.1 331.469 1607.14 343.598 1616.62 354.473C1621.7 360.404 1628.01 365.152 1635.11 368.384C1642.2 371.616 1649.92 373.254 1657.72 373.183C1680.7 373.183 1702.68 357.596 1708.85 336.934C1710.94 329.88 1711.86 319.953 1711.86 304.728V249.797H1711.75Z" fill="#282F40"/>
<path d="M1853.97 202.272C1853.97 201.139 1853.52 200.053 1852.72 199.251C1851.92 198.45 1850.84 198 1849.7 198H1836.81C1835.68 198.015 1834.61 198.471 1833.82 199.271C1833.03 200.071 1832.59 201.149 1832.59 202.272V259.626C1820.82 248.39 1805.11 242.215 1788.84 242.426C1780.29 242.422 1771.82 244.113 1763.92 247.402C1756.02 250.69 1748.85 255.512 1742.83 261.587C1736.8 267.662 1732.04 274.871 1728.82 282.797C1725.59 290.723 1723.97 299.209 1724.04 307.766C1724.04 343.703 1752.77 371.821 1789.46 371.821C1802.64 371.997 1815.54 368.056 1826.38 360.548C1837.21 353.041 1845.43 342.34 1849.9 329.937C1852.83 321.707 1854.21 313.007 1853.97 304.275V202.272ZM1789.23 350.935C1783.43 350.951 1777.68 349.807 1772.32 347.571C1766.96 345.336 1762.11 342.053 1758.04 337.915C1753.96 333.777 1750.76 328.868 1748.61 323.475C1746.46 318.082 1745.41 312.314 1745.51 306.509C1745.52 295.089 1750.06 284.139 1758.13 276.061C1766.2 267.984 1777.15 263.439 1788.56 263.424C1800.19 263.461 1811.33 268.113 1819.54 276.359C1827.74 284.605 1832.33 295.771 1832.31 307.403C1832.4 313.106 1831.35 318.771 1829.22 324.063C1827.09 329.356 1823.93 334.17 1819.92 338.225C1815.91 342.279 1811.13 345.492 1805.86 347.674C1800.59 349.857 1794.94 350.965 1789.23 350.935V350.935Z" fill="#282F40"/>
<path d="M1061.96 307.238C1062.24 301.261 1061.99 295.271 1061.2 289.34C1060.64 285.825 1059.76 282.369 1058.57 279.017C1054.86 268.458 1047.97 259.313 1038.87 252.839C1029.76 246.364 1018.88 242.877 1007.73 242.856C995.917 242.628 984.409 246.603 975.243 254.078V202.292C975.243 201.159 974.796 200.071 974 199.267C973.204 198.463 972.123 198.007 970.994 198H958.051C956.919 198.007 955.835 198.462 955.035 199.265C954.234 200.069 953.781 201.156 953.774 202.292V366.149C953.774 367.287 954.225 368.379 955.027 369.184C955.829 369.988 956.917 370.441 958.051 370.441H970.966C971.533 370.452 972.097 370.349 972.624 370.138C973.151 369.927 973.631 369.612 974.035 369.212C974.439 368.812 974.758 368.335 974.976 367.809C975.193 367.283 975.303 366.718 975.299 366.149V301.992C975.3 299.387 975.44 296.783 975.718 294.193C975.885 291.766 976.325 289.367 977.032 287.04C978.972 280.387 983.027 274.555 988.579 270.432C994.131 266.309 1000.87 264.122 1007.78 264.205C1014.51 264.153 1021.08 266.205 1026.59 270.076C1032.11 273.947 1036.28 279.445 1038.53 285.805C1040.02 290.53 1040.72 295.468 1040.6 300.421V366.177C1040.6 366.741 1040.7 367.301 1040.92 367.824C1041.13 368.346 1041.45 368.821 1041.84 369.22C1042.24 369.619 1042.71 369.935 1043.24 370.15C1043.76 370.364 1044.31 370.472 1044.88 370.469H1057.79C1058.91 370.439 1059.97 369.974 1060.74 369.173C1061.52 368.371 1061.96 367.296 1061.96 366.177V307.266V307.238Z" fill="#282F40"/>
<path d="M1108.1 249.811C1108.09 248.673 1107.63 247.585 1106.82 246.783C1106.01 245.981 1104.91 245.531 1103.76 245.531H1090.75C1089.61 245.531 1088.51 245.982 1087.7 246.785C1086.89 247.587 1086.44 248.676 1086.44 249.811V366.19C1086.44 367.325 1086.89 368.413 1087.7 369.216C1088.51 370.018 1089.61 370.469 1090.75 370.469H1103.76C1104.9 370.469 1106 370.018 1106.81 369.216C1107.62 368.413 1108.07 367.325 1108.07 366.19V366.19V249.811H1108.1Z" fill="#282F40"/>
<path d="M1388.47 350.725C1389.25 349.91 1389.68 348.821 1389.67 347.69C1389.67 347.047 1389.53 346.413 1389.26 345.834C1388.98 345.255 1388.58 344.746 1388.08 344.345L1378.77 335.912C1378.01 335.202 1377.01 334.801 1375.97 334.788C1375.4 334.789 1374.83 334.906 1374.3 335.133C1373.77 335.36 1373.29 335.692 1372.9 336.109V336.109L1370.8 338.273C1366.79 342.708 1361.9 346.25 1356.45 348.671C1351 351.091 1345.11 352.337 1339.15 352.328C1327.69 352.037 1316.8 347.258 1308.8 339.011C1300.8 330.764 1296.33 319.701 1296.33 308.182C1296.33 296.663 1300.8 285.6 1308.8 277.353C1316.8 269.106 1327.69 264.327 1339.15 264.037C1345.12 264.072 1351.04 265.311 1356.53 267.682C1362.02 270.052 1366.99 273.506 1371.13 277.838L1373.26 279.919C1374.05 280.678 1375.1 281.102 1376.2 281.102C1377.29 281.102 1378.34 280.678 1379.13 279.919V279.919L1388.36 271.12C1389.15 270.311 1389.61 269.222 1389.62 268.085C1389.62 267.456 1389.48 266.835 1389.22 266.266C1388.95 265.698 1388.56 265.195 1388.08 264.796L1385.9 262.688C1371.72 248.942 1357.38 242.814 1339.45 242.814C1328.74 242.814 1318.2 245.48 1308.77 250.575C1299.33 255.67 1291.3 263.034 1285.38 272.011C1279.47 280.987 1275.86 291.297 1274.88 302.017C1273.9 312.738 1275.57 323.537 1279.75 333.449C1283.93 343.36 1290.49 352.077 1298.84 358.819C1307.19 365.561 1317.07 370.12 1327.6 372.087C1338.13 374.054 1348.98 373.369 1359.18 370.093C1369.39 366.817 1378.62 361.051 1386.07 353.311L1388.41 350.95L1388.47 350.725Z" fill="#282F40"/>
<path d="M1454.65 354.715C1454.65 353.758 1454.32 352.831 1453.73 352.083C1453.13 351.335 1452.31 350.809 1451.38 350.591C1441.34 348.166 1432.99 341.951 1429.72 333.869C1427.33 326.998 1426.21 319.743 1426.42 312.466V309.679C1426.42 307.672 1426.42 304.718 1426.42 300.816V202.271C1426.42 201.71 1426.32 201.154 1426.11 200.635C1425.89 200.116 1425.58 199.645 1425.19 199.248C1424.79 198.851 1424.32 198.537 1423.81 198.324C1423.29 198.111 1422.74 198.004 1422.18 198.007H1409.14C1408.57 197.973 1407.99 198.058 1407.44 198.257C1406.9 198.456 1406.4 198.765 1405.98 199.164C1405.56 199.563 1405.23 200.045 1405 200.58C1404.77 201.114 1404.65 201.69 1404.65 202.271V302.349C1404.37 310.553 1404.77 318.765 1405.84 326.902C1406.9 338.504 1412.17 349.309 1420.65 357.251C1428.66 364.922 1438.78 370 1449.69 371.827H1449.83H1450.38C1451.5 371.82 1452.58 371.368 1453.37 370.57C1454.17 369.772 1454.62 368.692 1454.62 367.563V354.715H1454.65Z" fill="#282F40"/>
<path d="M1195.77 244.18C1182.53 244.056 1169.58 248.058 1158.72 255.627C1147.87 263.196 1139.65 273.956 1135.22 286.407C1132.3 294.559 1130.91 303.179 1131.13 311.833V413.729C1131.13 414.291 1131.24 414.848 1131.45 415.368C1131.67 415.888 1131.98 416.36 1132.38 416.757C1132.78 417.154 1133.25 417.469 1133.77 417.682C1134.29 417.895 1134.85 418.003 1135.41 418H1148.33C1149.47 417.992 1150.55 417.54 1151.35 416.741C1152.15 415.942 1152.61 414.86 1152.61 413.729V356.236C1164.33 367.435 1179.99 373.599 1196.21 373.401C1213.45 373.341 1229.96 366.461 1242.12 354.27C1254.28 342.079 1261.09 325.572 1261.07 308.372C1261.07 299.859 1259.37 291.431 1256.08 283.579C1252.79 275.727 1247.96 268.606 1241.88 262.633C1235.81 256.659 1228.6 251.951 1220.68 248.783C1212.77 245.615 1204.3 244.051 1195.77 244.18V244.18ZM1196.44 352.413C1184.77 352.368 1173.61 347.704 1165.39 339.446C1157.17 331.187 1152.58 320.01 1152.61 308.372C1152.52 302.672 1153.57 297.011 1155.7 291.722C1157.82 286.432 1160.99 281.619 1165.01 277.567C1169.02 273.514 1173.81 270.302 1179.09 268.121C1184.37 265.939 1190.03 264.831 1195.74 264.861C1201.57 264.827 1207.35 265.955 1212.74 268.18C1218.13 270.405 1223.02 273.682 1227.12 277.818C1231.22 281.954 1234.46 286.866 1236.63 292.266C1238.81 297.666 1239.88 303.446 1239.79 309.265C1239.78 314.939 1238.66 320.558 1236.48 325.798C1234.3 331.039 1231.1 335.799 1227.07 339.806C1223.05 343.814 1218.27 346.99 1213.01 349.153C1207.76 351.316 1202.12 352.424 1196.44 352.413V352.413Z" fill="#282F40"/>
<path d="M1524.48 242.815C1516.04 242.8 1507.67 244.454 1499.86 247.682C1492.06 250.91 1484.96 255.65 1478.98 261.629C1473 267.609 1468.25 274.712 1465 282.532C1461.76 290.353 1460.08 298.738 1460.07 307.209C1460.05 315.68 1461.7 324.071 1464.92 331.903C1468.14 339.735 1472.86 346.854 1478.82 352.854C1484.78 358.855 1491.86 363.618 1499.66 366.874C1507.45 370.129 1515.81 371.812 1524.26 371.826C1532.7 371.841 1541.07 370.187 1548.87 366.959C1556.68 363.731 1563.78 358.991 1569.76 353.012C1575.74 347.032 1580.49 339.929 1583.73 332.109C1586.98 324.288 1588.66 315.903 1588.67 307.432C1588.68 298.961 1587.04 290.57 1583.82 282.738C1580.6 274.906 1575.88 267.787 1569.92 261.787C1563.95 255.786 1556.87 251.023 1549.08 247.767C1541.28 244.512 1532.92 242.829 1524.48 242.815V242.815ZM1524.26 351.095C1515.64 351.184 1507.19 348.704 1499.98 343.971C1492.77 339.239 1487.12 332.465 1483.75 324.51C1480.39 316.554 1479.45 307.774 1481.05 299.282C1482.66 290.79 1486.75 282.968 1492.79 276.807C1498.84 270.646 1506.57 266.424 1515 264.674C1523.44 262.925 1532.21 263.727 1540.19 266.98C1548.18 270.233 1555.02 275.79 1559.85 282.946C1564.68 290.103 1567.29 298.537 1567.34 307.181C1567.31 332.203 1548.76 351.095 1524.26 351.095V351.095Z" fill="#282F40"/>
<path d="M883.301 371.738C874.447 371.856 865.631 370.556 857.187 367.886C850.471 365.667 844.106 362.5 838.283 358.479V358.479C837.865 358.158 837.474 357.803 837.114 357.418C836.384 356.52 835.99 355.394 836 354.236C836.011 353.635 836.124 353.04 836.334 352.477L840.538 343.517C840.928 342.603 841.576 341.823 842.402 341.272C843.228 340.722 844.196 340.425 845.187 340.418C846.328 340.424 847.431 340.829 848.305 341.563C858.132 349.221 870.243 353.341 882.688 353.259C892.683 353.259 900.367 351.556 905.573 348.179C908.06 346.578 910.079 344.345 911.424 341.706C912.769 339.068 913.392 336.119 913.229 333.161C913.229 323.53 907.299 318.366 895.133 317.389L875.979 315.603C862.949 314.486 853.011 311.025 846.44 305.358C843.099 302.338 840.473 298.608 838.753 294.44C837.034 290.272 836.264 285.772 836.501 281.268C836.308 276.031 837.37 270.824 839.598 266.083C841.826 261.343 845.156 257.207 849.308 254.024C857.66 247.464 869.158 244.114 883.217 244.114C890.509 244.128 897.763 245.171 904.765 247.213C910.027 248.79 915.142 250.826 920.05 253.298L921.581 254.052C922.5 254.698 923.171 255.641 923.48 256.723C923.789 257.805 923.718 258.961 923.279 259.997L919.994 267.451C919.618 268.401 918.971 269.221 918.135 269.806C917.298 270.392 916.309 270.718 915.289 270.744C914.38 270.724 913.494 270.454 912.728 269.963C908.794 267.694 904.595 265.922 900.227 264.687C894.68 263.19 888.961 262.43 883.217 262.426C875.116 262.426 868.879 264.101 864.62 267.367C862.515 269.002 860.841 271.129 859.744 273.561C858.647 275.994 858.161 278.659 858.328 281.324C858.177 283.375 858.497 285.433 859.264 287.34C860.032 289.247 861.226 290.951 862.755 292.322C865.733 294.862 870.773 296.453 877.733 297.123L896.358 298.91C901.428 299.388 906.454 300.256 911.391 301.506C913.809 302.114 916.16 302.965 918.407 304.046C920.269 304.9 922.041 305.938 923.697 307.145C927.199 309.816 929.999 313.304 931.854 317.305C934.017 322.341 935.044 327.793 934.86 333.272C935.057 338.793 933.889 344.276 931.46 349.234C929.031 354.192 925.418 358.47 920.94 361.689C911.614 368.277 898.947 371.738 883.301 371.738Z" fill="#282F40"/>
<path d="M132 283.583C132 274.01 139.759 266.25 149.33 266.25H158.67C168.241 266.25 176 274.01 176 283.583V310.25H132V283.583Z" fill="#00B5E2"/>
<path d="M132 310.25H176V336.917C176 346.49 168.241 354.25 158.67 354.25H149.33C139.759 354.25 132 346.49 132 336.917V310.25Z" fill="#FED141"/>
<path d="M220 217.137C220 207.564 227.759 199.804 237.33 199.804H246.67C256.241 199.804 264 207.564 264 217.137V243.804H220V217.137Z" fill="#FED141"/>
<path d="M264 243.804H220V331.804H264V243.804Z" fill="#705C59"/>
<path d="M220 331.804H264V402.47C264 412.043 256.241 419.804 246.67 419.804H237.33C227.759 419.804 220 412.043 220 402.47V331.804Z" fill="#E4002B"/>
<path d="M308 149.333C308 139.76 315.759 132 325.33 132H334.67C344.241 132 352 139.76 352 149.333V176H308V149.333Z" fill="#FED141"/>
<path d="M352 176H308V264H352V176Z" fill="#FF4040"/>
<path d="M351.868 264H308V352H351.868V264Z" fill="#00B140"/>
<path d="M352 352H308V440H352V352Z" fill="#FED141"/>
<path d="M308 440H351.868V466.667C351.868 476.24 344.132 484 334.59 484H325.278C315.736 484 308 476.24 308 466.667V440Z" fill="#E0004D"/>
<path d="M396 194.082C396 184.509 403.759 176.749 413.33 176.749H422.67C432.241 176.749 440 184.509 440 194.082V220.749H396V194.082Z" fill="#FED141"/>
<path d="M440 220.749H396V264.749H440V220.749Z" fill="#00B140"/>
<path d="M440 264.749H396V308.749H440V264.749Z" fill="#E0004D"/>
<path d="M396 308.749H440V423.416C440 432.989 432.241 440.749 422.67 440.749H413.33C403.759 440.749 396 432.989 396 423.416V308.749Z" fill="#006AC6"/>
<path d="M484 149.333C484 139.76 491.759 132 501.33 132H510.67C520.241 132 528 139.76 528 149.333V220H484V149.333Z" fill="#006AC6"/>
<path d="M484 220H528V466.667C528 476.24 520.241 484 510.67 484H501.33C491.759 484 484 476.24 484 466.667V220Z" fill="#E4002B"/>
<path d="M572 217.137C572 207.564 579.759 199.804 589.33 199.804H598.67C608.241 199.804 616 207.564 616 217.137V287.804H572V217.137Z" fill="#705C59"/>
<path d="M616 287.804H572V375.804H616V287.804Z" fill="#00B3A2"/>
<path d="M572 375.804H616V402.47C616 412.043 608.241 419.804 598.67 419.804H589.33C579.759 419.804 572 412.043 572 402.47V375.804Z" fill="#006AC6"/>
<path d="M660 283.583C660 274.01 667.759 266.25 677.33 266.25H686.67C696.241 266.25 704 274.01 704 283.583V310.25H660V283.583Z" fill="#00B140"/>
<path d="M660 310.25H704V336.917C704 346.49 696.241 354.25 686.67 354.25H677.33C667.759 354.25 660 346.49 660 336.917V310.25Z" fill="#FED141"/>
</svg>
