<svg clip-rule="evenodd" fill-rule="evenodd" stroke-linejoin="round" stroke-miterlimit="2" viewBox="0 0 560 400" xmlns="http://www.w3.org/2000/svg"><path d="m224.025 51.8v-.055c.028-31.131 23.305-50.825 50.97-50.825 27.68 0 51.091 19.718 51.091 50.88 0 31.163-23.533 51.591-51.202 51.591-27.654 0-50.832-20.459-50.859-51.591zm81.645-.044c-.022-18.884-14.186-31.584-30.786-31.584-16.613 0-30.586 12.565-30.586 31.584s13.962 31.995 30.575 31.995c16.6 0 30.775-12.823 30.797-31.951zm383.833 8.606h-77.386c2.662 15.992 14.306 23.81 30.121 23.81 11.178 0 21.791-4.78 27.214-13.885l16.291 8.151c-8.539 16.458-25.961 24.864-44.526 24.864-28.035 0-50.06-20.439-50.06-51.59 0-31.152 22.491-50.881 50.06-50.881 27.57 0 48.674 19.718 48.674 50.648-.033 2.85-.277 5.767-.388 8.883zm-19.873-16.535c-1.841-15.404-13.153-23.81-28.024-23.81-14.872 0-26.173 7.596-29.056 23.81zm-530.032 27.525h18.908c0 7.818 6.809 14.472 17.922 14.472 11.112 0 18.12-5.245 18.12-12.598 0-6.521-5.201-9.925-12.465-11.556l-13.152-3.149c-18.11-4.791-26.405-14.239-26.405-28.834 0-15.992 14.295-28.823 34.478-28.823 16.602 0 34.479 8.861 34.479 29.333h-19.552c0-7.119-7.264-12.021-14.539-12.021-8.539 0-14.295 5.245-14.295 12.021 0 6.067 5.634 9.449 11.634 10.968l14.76 3.615c20.872 5.246 25.374 18.321 25.374 28.823 0 18.676-18.331 29.644-38.282 29.644-18.11.077-36.597-11.467-37.007-31.906zm263.541-66.806-3.582 19.552c-4.481-2.107-9.349-3.261-14.295-3.394-17.644 0-25.962 18.676-25.962 45.292v35.365h-20.627v-98.268h20.627v22.047c4.969-17.278 14.761-24.154 27.226-24.154 6.565-.111 13.497 1.52 16.602 3.505v.044zm105.077-1.519v98.268h-20.417v-14.672c-6.521 11.212-20.416 16.823-33.458 16.823-26.394 0-48.208-20.195-48.208-51.346 0-31.152 21.803-51.125 47.975-51.125 13.718 0 27.215 5.479 33.68 16.569v-14.584h20.506zm-20.516 48.773h-.012c.056-4.103-.698-8.173-2.229-11.977-1.53-3.803-3.803-7.264-6.687-10.191-2.883-2.917-6.31-5.235-10.092-6.821-3.781-1.585-7.84-2.395-11.944-2.395-16.601 0-30.098 12.842-30.098 31.384 0 18.543 13.497 31.995 30.098 31.995 16.59 0 30.943-12.17 30.964-31.995zm100.907-47.254-3.582 19.552c-4.481-2.107-9.349-3.261-14.295-3.394-17.644 0-25.962 18.676-25.962 45.292v35.365h-20.527v-98.268h20.649v22.047c4.969-17.278 14.761-24.154 27.215-24.154 6.465-.111 13.374 1.52 16.502 3.505zm-536.376 99.887c-28.786 0-52.122-23.336-52.122-52.123 0-28.786 23.336-52.122 52.122-52.122 28.787 0 52.123 23.336 52.123 52.122 0 28.787-23.336 52.123-52.123 52.123zm0-15.526c20.212 0 36.597-16.385 36.597-36.597s-16.385-36.596-36.597-36.596c-20.211 0-36.596 16.384-36.596 36.596s16.385 36.597 36.596 36.597zm-3.906-59.075c2.808 3.502 6.429 6.265 10.546 8.056 4.117 1.79 8.606 2.555 13.082 2.226.181-.02.363.013.526.092s.301.204.395.36c.095.155.143.334.138.515-.003.181-.059.357-.158.51-2.462 3.755-3.972 8.053-4.403 12.521-.431 4.469.23 8.976 1.929 13.131.066.166.086.345.056.521-.031.176-.107.339-.225.472-.117.132-.27.229-.441.28s-.352.054-.523.008c-4.336-1.186-8.897-1.296-13.286-.324-4.39.972-8.476 2.997-11.907 5.902-.138.112-.303.186-.479.212-.177.025-.355 0-.518-.072-.163-.071-.304-.183-.406-.331s-.161-.316-.173-.495c-.217-4.482-1.52-8.846-3.798-12.713s-5.461-7.121-9.275-9.483c-.15-.095-.27-.23-.349-.39-.079-.161-.11-.337-.094-.516.018-.176.081-.346.188-.487.108-.143.253-.252.416-.316 4.201-1.589 7.953-4.176 10.932-7.537 2.98-3.362 5.094-7.4 6.163-11.762.041-.173.13-.329.258-.454.127-.125.285-.211.456-.249.173-.039.355-.031.52.028.169.058.318.158.43.295z" transform="matrix(.724867 0 0 .724867 29.921 162.082)"/></svg>