<svg id="Ebene_1" data-name="Ebene 1" xmlns="http://www.w3.org/2000/svg" width="379.5" height="70.7" viewBox="0 0 379.5 70.7">
  <defs>
    <style>
      .cls-1 {
        fill: #12da9d;
      }
    </style>
  </defs>
  <g>
    <path d="M76.1,15.6H87.4l8.8,23.5,9.4-23.5H114l9.4,23.5,8.7-23.5h11.3L127.5,54.9h-7.9l-9.8-23.3L99.9,54.9H92.1Z" transform="translate(-0.2 0.1)"/>
    <path d="M144.5,27.2a22,22,0,0,1,4-6.6,19,19,0,0,1,6.4-4.3,20.2,20.2,0,0,1,8.3-1.6,20.9,20.9,0,0,1,8.1,1.5,17.9,17.9,0,0,1,6.2,4.2,19.4,19.4,0,0,1,3.8,6.6,26.3,26.3,0,0,1,1.3,8.6v2.8H153.7v.2a9.5,9.5,0,0,0,1.5,3.4,10.9,10.9,0,0,0,2.5,2.3,12.3,12.3,0,0,0,3.1,1.4,13.2,13.2,0,0,0,3.4.4,16.2,16.2,0,0,0,6.4-1.1,16.6,16.6,0,0,0,4.8-2.9l4.3,8.6a27.4,27.4,0,0,1-6.2,3.6,25.6,25.6,0,0,1-9.4,1.6,24.8,24.8,0,0,1-8.9-1.6,20.4,20.4,0,0,1-6.6-4.3,20.2,20.2,0,0,1-4.2-6.5,24.8,24.8,0,0,1-1.4-8.2A23.8,23.8,0,0,1,144.5,27.2Zm24.3-1.6a8,8,0,0,0-5.9-2.1,9.3,9.3,0,0,0-6.1,1.9,9.1,9.1,0,0,0-3.1,5.5h17.6A8.3,8.3,0,0,0,168.8,25.6Z" transform="translate(-0.2 0.1)"/>
    <path d="M188.3,26.8a18.3,18.3,0,0,1,4.4-6.5,17.2,17.2,0,0,1,6.6-4.1,24.6,24.6,0,0,1,16.9,0,22.2,22.2,0,0,1,6.4,4.2l-5.9,8.4a13.4,13.4,0,0,0-3.8-2.8,10.8,10.8,0,0,0-5.2-1.2,11.1,11.1,0,0,0-4.1.8,9.9,9.9,0,0,0-3.2,2.1,8.3,8.3,0,0,0-2.2,3.3,12,12,0,0,0,0,8.6,10,10,0,0,0,2.2,3.3,9.9,9.9,0,0,0,3.2,2.1,11,11,0,0,0,4.1.7,12.5,12.5,0,0,0,5.3-1.1,17.1,17.1,0,0,0,4-2.9l5.7,8.4a21.4,21.4,0,0,1-6.4,4.1,21.9,21.9,0,0,1-8.8,1.7,23.1,23.1,0,0,1-8.3-1.5,19,19,0,0,1-10.9-10.6,21.1,21.1,0,0,1-1.6-8.5A21.5,21.5,0,0,1,188.3,26.8Z" transform="translate(-0.2 0.1)"/>
    <path d="M239,54.9H228.6V-.1H239Z" transform="translate(-0.2 0.1)"/>
    <path d="M253.3,17a24.8,24.8,0,0,1,11-2.2c5.8,0,10.1,1.3,13,3.8s4.2,6.6,4.2,12.1V55H271.2V49.7a18.3,18.3,0,0,1-4.5,4.2,13.6,13.6,0,0,1-7.6,1.9,15.7,15.7,0,0,1-5.4-.9,14.6,14.6,0,0,1-4.2-2.5,11.9,11.9,0,0,1-2.7-3.9,11.5,11.5,0,0,1-1-5,12.4,12.4,0,0,1,.9-4.8,12.6,12.6,0,0,1,2.7-3.7,13.3,13.3,0,0,1,3.9-2.6,20,20,0,0,1,5.1-1.2l10.7-.9c1.4-.2,2.1-.7,2.1-1.6v-.6a3.5,3.5,0,0,0-1.7-2.9,9.8,9.8,0,0,0-5.2-1.1,15.3,15.3,0,0,0-3,.3,11.5,11.5,0,0,0-2.8.9,9.7,9.7,0,0,0-2.4,1.5,6,6,0,0,0-1.6,2.4l-7.7-5.5A12.9,12.9,0,0,1,253.3,17Zm8.1,21.7a6,6,0,0,0-3.6,1.5,3.8,3.8,0,0,0-1.2,2.8,3.6,3.6,0,0,0,1.4,3,6.1,6.1,0,0,0,4.1,1.1,11.6,11.6,0,0,0,3.8-.6,9.7,9.7,0,0,0,2.8-1.8,7.2,7.2,0,0,0,1.8-2.5,6.7,6.7,0,0,0,.7-3.1V37.5Z" transform="translate(-0.2 0.1)"/>
    <path d="M290.3,15.6h10.4v5.5a16.4,16.4,0,0,1,5.4-4.7,15.9,15.9,0,0,1,7.7-1.8,17.2,17.2,0,0,1,6.8,1.4,16.3,16.3,0,0,1,5.8,4,20.8,20.8,0,0,1,3.9,6.5,26.6,26.6,0,0,1,1.4,8.8,26.6,26.6,0,0,1-1.4,8.8,22,22,0,0,1-3.9,6.5,16.4,16.4,0,0,1-5.7,4,17.2,17.2,0,0,1-6.8,1.3A15.2,15.2,0,0,1,306,54a17.2,17.2,0,0,1-5.3-4.7V70.6H290.3Zm24.5,29.5a8.7,8.7,0,0,0,3.2-2.2,8.3,8.3,0,0,0,2.2-3.3,12,12,0,0,0,0-8.6,8.7,8.7,0,0,0-2.2-3.4,9.9,9.9,0,0,0-3.2-2.1,11,11,0,0,0-4.1-.7,10.3,10.3,0,0,0-7.4,2.8,10.3,10.3,0,0,0-2.9,7.7,10.2,10.2,0,0,0,2.9,7.7,10.3,10.3,0,0,0,7.4,2.8A11,11,0,0,0,314.8,45.1Z" transform="translate(-0.2 0.1)"/>
    <path d="M338.3,15.6h10.4v5.5a16.4,16.4,0,0,1,5.4-4.7,15.9,15.9,0,0,1,7.7-1.8,17.2,17.2,0,0,1,6.8,1.4,16.3,16.3,0,0,1,5.8,4,20.8,20.8,0,0,1,3.9,6.5,26.6,26.6,0,0,1,1.4,8.8,26.6,26.6,0,0,1-1.4,8.8,22,22,0,0,1-3.9,6.5,16.4,16.4,0,0,1-5.7,4,17.2,17.2,0,0,1-6.8,1.3A15.2,15.2,0,0,1,354,54a17.2,17.2,0,0,1-5.3-4.7V70.6H338.3Zm24.5,29.5a8.7,8.7,0,0,0,3.2-2.2,8.3,8.3,0,0,0,2.2-3.3,12,12,0,0,0,0-8.6,8.7,8.7,0,0,0-2.2-3.4,9.9,9.9,0,0,0-3.2-2.1,11,11,0,0,0-4.1-.7,10.3,10.3,0,0,0-7.4,2.8,10.3,10.3,0,0,0-2.9,7.7,10.2,10.2,0,0,0,2.9,7.7,10.3,10.3,0,0,0,7.4,2.8A11,11,0,0,0,362.8,45.1Z" transform="translate(-0.2 0.1)"/>
  </g>
  <g>
    <path class="cls-1" d="M16.4,15.7,12.1,44a3.8,3.8,0,0,1-7.6,0L.3,15.7a4.1,4.1,0,0,1,3.8-5.2h8.5A4.1,4.1,0,0,1,16.4,15.7Z" transform="translate(-0.2 0.1)"/>
    <path class="cls-1" d="M58.9,15.7,54.7,44c-.7,4.4-7.1,4.3-7.6,0L42.8,15.7a4.1,4.1,0,0,1,3.8-5.2h8.5A4.1,4.1,0,0,1,58.9,15.7Z" transform="translate(-0.2 0.1)"/>
    <path class="cls-1" d="M21.5,54.9l4.3-28.4c.7-4.3,7.1-4.2,7.6,0l4.3,28.4A4.2,4.2,0,0,1,33.8,60H25.4A4.2,4.2,0,0,1,21.5,54.9Z" transform="translate(-0.2 0.1)"/>
  </g>
</svg>
