<svg width="228" height="60" viewBox="0 0 228 60" fill="none" xmlns="http://www.w3.org/2000/svg">
<path d="M82.209 29.4925L75.3276 20.3482C74.7542 19.6623 75.2129 18.8622 76.0157 18.8622H79.5711C80.0299 18.8622 80.4887 18.9765 80.8327 19.4337L85.191 25.6061L89.6639 19.4337C89.8933 19.0908 90.352 18.8622 90.9255 18.8622H94.4809C95.3984 18.8622 95.6278 19.548 95.169 20.2339L88.2876 29.3782L95.169 39.094C95.6278 39.7798 95.3984 40.4656 94.4809 40.4656H91.0401C90.5814 40.4656 90.1226 40.237 89.8932 39.7798L85.191 33.1502L80.2593 40.1227C80.1446 40.3513 79.8005 40.5799 79.3418 40.5799H75.6717C74.7541 40.5799 74.5248 39.8941 74.9835 39.2083L82.209 29.4925ZM110.193 18.405C115.813 18.405 120.171 22.6342 120.171 28.3494L120.057 29.8354C120.057 30.4069 119.598 30.7498 119.025 30.7498H104.344C104.459 32.3171 105.158 33.7849 106.304 34.8639C107.451 35.9429 108.961 36.5549 110.537 36.5793C112.262 36.5081 113.932 35.9535 115.354 34.9791C116.043 34.6361 116.387 34.4075 116.845 34.9791L118.336 37.0365C118.68 37.4937 118.91 37.951 118.222 38.4082C115.953 40.2363 113.11 41.2078 110.193 41.1515C103.656 41.1515 99.2978 36.0078 99.2978 29.8354C99.2978 23.5487 103.656 18.405 110.193 18.405ZM115.125 27.3207C115.01 24.6917 112.831 22.5199 110.193 22.5199C108.838 22.4836 107.519 22.9575 106.499 23.8472C105.478 24.737 104.832 25.9772 104.688 27.3207H115.125ZM125.332 19.891C125.332 19.3194 125.791 18.8622 126.365 18.8622H127.97C128.429 18.8622 128.773 19.0908 128.888 19.548L129.576 21.3769C129.92 20.9197 132.787 18.405 137.146 18.405C143.798 18.405 146.206 23.0915 146.206 28.6923V39.5512C146.206 40.1227 145.747 40.5799 145.174 40.5799H142.077C141.804 40.5799 141.541 40.4716 141.347 40.2786C141.154 40.0857 141.045 39.824 141.045 39.5512V28.4637C141.045 25.0346 139.325 23.0915 136.572 23.0915C133.131 23.0915 130.838 25.6061 130.608 26.292V39.4369C130.608 40.1227 130.264 40.4656 129.347 40.4656H126.479C126.206 40.4656 125.943 40.3573 125.75 40.1643C125.556 39.9714 125.447 39.7097 125.447 39.4369V19.891H125.332ZM171.667 19.891C171.667 19.3194 172.126 18.8622 172.7 18.8622H174.305C174.649 18.8622 175.108 19.2051 175.223 19.6623L175.796 21.4912C176.14 20.9197 178.205 18.405 182.104 18.405C184.169 18.405 186.692 18.9765 186.118 20.3482L184.857 22.9772C184.627 23.5487 184.054 23.663 183.595 23.4344C183.251 23.3201 182.448 23.0915 181.76 23.0915C178.663 23.0915 177.058 25.3775 176.828 25.7204V39.4369C176.828 40.3513 176.255 40.4656 175.337 40.4656H172.7C172.426 40.4656 172.163 40.3573 171.97 40.1643C171.776 39.9714 171.667 39.7097 171.667 39.4369V19.891ZM215.364 10.4037C215.364 9.83221 215.823 9.375 216.396 9.375H219.493C220.067 9.375 220.525 9.83221 220.525 10.4037V39.4369C220.525 40.0084 220.067 40.4656 219.493 40.4656H216.396C216.123 40.4656 215.86 40.3573 215.667 40.1643C215.473 39.9714 215.364 39.7097 215.364 39.4369V10.4037ZM165.589 18.405H160.886V10.4037C160.886 9.83221 160.428 9.375 159.854 9.375H156.758C156.184 9.375 155.725 9.83221 155.725 10.4037V18.405H151.023C150.45 18.405 149.991 18.8622 149.991 19.4337V21.8341C149.991 22.4056 150.45 22.8629 151.023 22.8629H155.725V39.5512C155.725 40.1227 156.184 40.5799 156.758 40.5799H159.854C160.428 40.5799 160.886 40.1227 160.886 39.5512V22.7485H165.589C166.162 22.7485 166.621 22.2913 166.621 21.7198V19.3194C166.621 18.8622 166.162 18.405 165.589 18.405ZM207.336 18.8622H204.813C204.239 18.8622 203.781 19.3194 203.781 19.891V20.2339C202.019 18.9478 199.886 18.2659 197.702 18.2907C194.741 18.3508 191.923 19.5731 189.862 21.6921C187.8 23.811 186.661 26.6553 186.692 29.6068C186.692 35.7792 191.623 41.0372 197.702 41.0372C199.996 41.0372 202.06 40.3513 203.781 39.094V39.4369C203.781 40.0084 204.239 40.4656 204.813 40.4656H207.336C207.909 40.4656 208.368 40.0084 208.368 39.4369V19.891C208.368 19.4337 207.795 18.8622 207.336 18.8622ZM197.702 36.3507C194.261 36.3507 191.623 33.3788 191.623 29.6068C191.623 25.9491 194.376 22.9772 197.702 22.9772C200.913 22.9772 203.436 25.6061 203.781 28.8066V30.2926C203.436 33.7217 200.799 36.3507 197.702 36.3507Z" fill="#010101"/>
<path d="M30.6216 20.9334H30.5082C25.7654 20.9334 21.604 17.401 18.504 14.3153L15.4547 11.2727C15.1665 10.986 14.9379 10.6455 14.7819 10.2707C14.6259 9.89599 14.5457 9.49433 14.5457 9.0887C14.5457 8.68306 14.6259 8.2814 14.7819 7.90666C14.9379 7.53192 15.1665 7.19143 15.4547 6.90466C16.0369 6.32587 16.826 6.00077 17.6488 6.00077C18.4716 6.00077 19.2607 6.32587 19.8429 6.90466L22.9019 9.94718C24.9789 12.0148 28.0234 14.7499 30.5179 14.7499H30.6312C33.1257 14.7499 36.1798 12.0076 38.2473 9.94718L41.2966 6.90466C41.5847 6.61785 41.9268 6.39033 42.3032 6.23511C42.6797 6.07989 43.0832 6 43.4907 6C43.8981 6 44.3016 6.07989 44.6781 6.23511C45.0546 6.39033 45.3966 6.61785 45.6848 6.90466C45.9729 7.19147 46.2015 7.53197 46.3574 7.9067C46.5133 8.28144 46.5936 8.68308 46.5936 9.0887C46.5936 9.49431 46.5133 9.89595 46.3574 10.2707C46.2015 10.6454 45.9729 10.9859 45.6848 11.2727L42.6258 14.3177C39.5258 17.401 35.3644 20.9334 30.6216 20.9334Z" fill="#E66DCB"/>
<path d="M43.4731 53.9815C43.0657 53.9823 42.6622 53.903 42.2857 53.7482C41.9092 53.5934 41.5672 53.3661 41.2792 53.0793L38.2222 50.037C36.1465 47.9736 33.104 45.2384 30.6112 45.2384H30.4979C28.005 45.2384 24.9529 47.9784 22.8868 50.037L19.8298 53.0841C19.2484 53.6595 18.4619 53.9825 17.642 53.9825C16.8221 53.9825 16.0355 53.6595 15.4541 53.0841C15.1661 52.7976 14.9376 52.4574 14.7818 52.083C14.6259 51.7086 14.5457 51.3073 14.5457 50.902C14.5457 50.4967 14.6259 50.0954 14.7818 49.721C14.9376 49.3465 15.1661 49.0063 15.4541 48.7198L18.5111 45.6775C21.6187 42.5824 25.7774 39.0386 30.5654 39.065H30.6208C35.363 39.065 39.5193 42.5968 42.6172 45.6775L45.6742 48.7198C46.1116 49.1507 46.4103 49.7014 46.5322 50.3017C46.6541 50.9021 46.5936 51.525 46.3586 52.0911C46.1236 52.6571 45.7246 53.1408 45.2125 53.4804C44.7003 53.8201 44.0982 54.0003 43.4827 53.9983L43.4731 53.9815Z" fill="#26E3E4"/>
<path d="M9.09337 45.4677C8.6871 45.4682 8.2847 45.3885 7.90922 45.2332C7.53373 45.0778 7.19253 44.8498 6.90513 44.5622C6.32555 43.981 6 43.1932 6 42.3718C6 41.5504 6.32555 40.7626 6.90513 40.1815L9.95424 37.1277C12.0319 35.0469 14.7924 31.9908 14.7636 29.4958V29.4404C14.7852 26.9454 12.0247 23.9013 9.95424 21.8085L6.90513 18.7547C6.32555 18.1736 6 17.3858 6 16.5644C6 15.743 6.32555 14.9552 6.90513 14.374C7.48541 13.7936 8.27202 13.4675 9.09217 13.4675C9.91232 13.4675 10.6989 13.7936 11.2792 14.374L14.3283 17.4278C17.4279 20.5345 20.982 24.7081 20.9556 29.4693C20.982 34.2305 17.4279 38.4041 14.3259 41.5108L11.2792 44.5622C10.9927 44.8502 10.6519 45.0786 10.2768 45.234C9.90159 45.3894 9.49938 45.4688 9.09337 45.4677Z" fill="#5B64EE"/>
<path d="M50.8976 45.5422C50.4915 45.5431 50.0892 45.4633 49.7139 45.3076C49.3387 45.1518 48.998 44.9231 48.7115 44.6346L45.6653 41.5821C42.5662 38.479 39.0155 34.3071 39.0444 29.5454C39.0179 24.7957 42.5686 20.619 45.6653 17.5135L48.7115 14.461C49.291 13.8803 50.0769 13.5541 50.8964 13.5541C51.7159 13.5541 52.5019 13.8803 53.0814 14.461C53.6609 15.0417 53.9864 15.8293 53.9864 16.6505C53.9864 17.4717 53.6609 18.2593 53.0814 18.8399L50.0376 21.8925C47.9595 23.9724 45.2016 27.0249 45.2328 29.5213V29.5743C45.2112 32.0707 47.9667 35.1256 50.0376 37.2056L53.0838 40.2581C53.5196 40.6904 53.8173 41.2429 53.9387 41.8453C54.0602 42.4477 54 43.0726 53.7658 43.6406C53.5316 44.2086 53.134 44.6939 52.6237 45.0347C52.1133 45.3754 51.5133 45.5563 50.9 45.5542L50.8976 45.5422Z" fill="#27E7A2"/>
</svg>
